<svg width="27" height="27" viewBox="0 0 27 27" fill="none" xmlns="http://www.w3.org/2000/svg">
<path d="M21.9375 3.375H19.4062V2.53125C19.4062 2.30747 19.3174 2.09286 19.1591 1.93463C19.0009 1.77639 18.7863 1.6875 18.5625 1.6875C18.3387 1.6875 18.1241 1.77639 17.9659 1.93463C17.8076 2.09286 17.7188 2.30747 17.7188 2.53125V3.375H9.28125V2.53125C9.28125 2.30747 9.19236 2.09286 9.03412 1.93463C8.87589 1.77639 8.66128 1.6875 8.4375 1.6875C8.21372 1.6875 7.99911 1.77639 7.84088 1.93463C7.68264 2.09286 7.59375 2.30747 7.59375 2.53125V3.375H5.0625C4.61495 3.375 4.18572 3.55279 3.86926 3.86926C3.55279 4.18572 3.375 4.61495 3.375 5.0625V21.9375C3.375 22.3851 3.55279 22.8143 3.86926 23.1307C4.18572 23.4472 4.61495 23.625 5.0625 23.625H21.9375C22.3851 23.625 22.8143 23.4472 23.1307 23.1307C23.4472 22.8143 23.625 22.3851 23.625 21.9375V5.0625C23.625 4.61495 23.4472 4.18572 23.1307 3.86926C22.8143 3.55279 22.3851 3.375 21.9375 3.375ZM7.59375 5.0625V5.90625C7.59375 6.13003 7.68264 6.34464 7.84088 6.50287C7.99911 6.66111 8.21372 6.75 8.4375 6.75C8.66128 6.75 8.87589 6.66111 9.03412 6.50287C9.19236 6.34464 9.28125 6.13003 9.28125 5.90625V5.0625H17.7188V5.90625C17.7188 6.13003 17.8076 6.34464 17.9659 6.50287C18.1241 6.66111 18.3387 6.75 18.5625 6.75C18.7863 6.75 19.0009 6.66111 19.1591 6.50287C19.3174 6.34464 19.4062 6.13003 19.4062 5.90625V5.0625H21.9375V8.4375H5.0625V5.0625H7.59375ZM21.9375 21.9375H5.0625V10.125H21.9375V21.9375ZM11.8125 12.6562V19.4062C11.8125 19.63 11.7236 19.8446 11.5654 20.0029C11.4071 20.1611 11.1925 20.25 10.9688 20.25C10.745 20.25 10.5304 20.1611 10.3721 20.0029C10.2139 19.8446 10.125 19.63 10.125 19.4062V14.021L9.65883 14.2552C9.45855 14.3553 9.22669 14.3718 9.01426 14.301C8.80183 14.2302 8.62623 14.0779 8.52609 13.8776C8.42595 13.6773 8.40948 13.4454 8.48029 13.233C8.5511 13.0206 8.70339 12.845 8.90367 12.7448L10.5912 11.9011C10.7199 11.8367 10.8629 11.8063 11.0066 11.8127C11.1504 11.8192 11.2901 11.8623 11.4125 11.938C11.5349 12.0137 11.6359 12.1194 11.7059 12.2451C11.7759 12.3708 11.8126 12.5124 11.8125 12.6562ZM18.052 15.8678L16.0312 18.5625H17.7188C17.9425 18.5625 18.1571 18.6514 18.3154 18.8096C18.4736 18.9679 18.5625 19.1825 18.5625 19.4062C18.5625 19.63 18.4736 19.8446 18.3154 20.0029C18.1571 20.1611 17.9425 20.25 17.7188 20.25H14.3438C14.1871 20.25 14.0335 20.2064 13.9002 20.124C13.7669 20.0416 13.6592 19.9237 13.5891 19.7836C13.519 19.6434 13.4893 19.4865 13.5034 19.3305C13.5175 19.1744 13.5747 19.0254 13.6688 18.9L16.7041 14.8532C16.7732 14.7612 16.8227 14.6562 16.8497 14.5444C16.8767 14.4327 16.8805 14.3166 16.861 14.2033C16.8416 14.09 16.7991 13.9819 16.7363 13.8856C16.6736 13.7893 16.5918 13.7069 16.496 13.6433C16.4002 13.5798 16.2924 13.5365 16.1793 13.5161C16.0661 13.4957 15.95 13.4986 15.8381 13.5247C15.7261 13.5508 15.6207 13.5994 15.5282 13.6677C15.4357 13.7361 15.3582 13.8225 15.3004 13.9219C15.2466 14.0209 15.1735 14.1081 15.0855 14.1785C14.9975 14.2488 14.8962 14.3008 14.7878 14.3313C14.6794 14.3619 14.5659 14.3704 14.4541 14.3565C14.3423 14.3425 14.2344 14.3062 14.1368 14.2499C14.0393 14.1935 13.954 14.1182 13.886 14.0283C13.818 13.9385 13.7687 13.8359 13.741 13.7267C13.7133 13.6175 13.7078 13.5038 13.7247 13.3924C13.7416 13.281 13.7807 13.1742 13.8396 13.0781C14.1183 12.5958 14.5484 12.2189 15.0631 12.0058C15.5778 11.7928 16.1484 11.7554 16.6864 11.8996C17.2245 12.0438 17.7 12.3615 18.0392 12.8034C18.3784 13.2452 18.5623 13.7867 18.5625 14.3438C18.5643 14.894 18.3849 15.4296 18.052 15.8678Z" fill="#581D8A"/>
</svg>
