<svg width="174" height="125" viewBox="0 0 174 125" fill="none" xmlns="http://www.w3.org/2000/svg">
<rect width="174" height="125" rx="15" fill="#FBF8F8"/>
<path d="M18.6924 109.62C18.6924 109.527 18.7391 109.48 18.8324 109.48H19.7284C19.8218 109.48 19.8684 109.527 19.8684 109.62V117.166C19.8684 117.446 19.9198 117.642 20.0224 117.754C20.1344 117.857 20.3071 117.908 20.5404 117.908H21.1564C21.5298 117.908 21.7164 118.095 21.7164 118.468C21.7164 118.701 21.6698 118.851 21.5764 118.916C21.4924 118.972 21.3524 119 21.1564 119H20.3304C19.7424 119 19.3224 118.86 19.0704 118.58C18.8184 118.291 18.6924 117.843 18.6924 117.236V109.62ZM20.5978 118.44C20.5978 118.207 20.6444 118.062 20.7378 118.006C20.8218 117.941 20.9618 117.908 21.1578 117.908H22.7118V116.074C22.7118 115.542 22.7771 115.085 22.9078 114.702C23.0478 114.31 23.2344 113.993 23.4678 113.75C23.7011 113.498 23.9764 113.316 24.2938 113.204C24.6204 113.083 24.9658 113.022 25.3298 113.022C26.1884 113.022 26.8511 113.255 27.3178 113.722C27.7844 114.189 28.0178 114.917 28.0178 115.906C28.0178 116.298 27.9618 116.676 27.8498 117.04C27.7378 117.404 27.6071 117.693 27.4578 117.908H29.0118C29.2078 117.908 29.3478 117.941 29.4318 118.006C29.5251 118.062 29.5718 118.207 29.5718 118.44C29.5718 118.813 29.3851 119 29.0118 119H27.5978C27.7938 119.243 27.8918 119.565 27.8918 119.966C27.8918 120.246 27.8404 120.503 27.7378 120.736C27.6351 120.979 27.4764 121.184 27.2618 121.352C27.0564 121.529 26.7998 121.669 26.4918 121.772C26.1838 121.875 25.8198 121.926 25.3998 121.926C24.5318 121.926 23.8644 121.749 23.3978 121.394C22.9404 121.049 22.7118 120.512 22.7118 119.784V119H21.1578C20.7844 119 20.5978 118.813 20.5978 118.44ZM25.3298 114.114C24.8818 114.114 24.5271 114.273 24.2658 114.59C24.0138 114.907 23.8878 115.351 23.8878 115.92V117.908H25.4698C25.7218 117.908 25.9318 117.852 26.0998 117.74C26.2771 117.628 26.4218 117.483 26.5338 117.306C26.6458 117.119 26.7251 116.914 26.7718 116.69C26.8184 116.457 26.8418 116.228 26.8418 116.004C26.8418 115.397 26.7158 114.931 26.4638 114.604C26.2118 114.277 25.8338 114.114 25.3298 114.114ZM25.3438 120.834C25.8478 120.834 26.2024 120.755 26.4078 120.596C26.6131 120.437 26.7158 120.213 26.7158 119.924C26.7158 119.821 26.7018 119.714 26.6738 119.602C26.6458 119.499 26.5898 119.401 26.5058 119.308C26.4311 119.215 26.3238 119.14 26.1838 119.084C26.0531 119.028 25.8804 119 25.6658 119H23.8878V119.784C23.8878 120.484 24.3731 120.834 25.3438 120.834ZM28.9917 119C28.8051 119 28.6651 118.967 28.5717 118.902C28.4784 118.837 28.4317 118.706 28.4317 118.51C28.4317 118.277 28.4784 118.118 28.5717 118.034C28.6557 117.95 28.7957 117.908 28.9917 117.908H29.8737C30.1071 117.908 30.2751 117.857 30.3777 117.754C30.4897 117.642 30.5457 117.446 30.5457 117.166V109.62C30.5457 109.527 30.5924 109.48 30.6857 109.48H31.5817C31.6751 109.48 31.7217 109.527 31.7217 109.62V116.956C31.7217 117.273 31.8337 117.511 32.0577 117.67C32.2911 117.829 32.5991 117.908 32.9817 117.908H33.1497C33.3364 117.908 33.4764 117.95 33.5697 118.034C33.6631 118.109 33.7097 118.239 33.7097 118.426C33.7097 118.669 33.6631 118.827 33.5697 118.902C33.4857 118.967 33.3457 119 33.1497 119H32.8417C32.5431 119 32.2817 118.939 32.0577 118.818C31.8337 118.697 31.6611 118.515 31.5397 118.272C31.3064 118.757 30.8211 119 30.0837 119H28.9917ZM33.1343 119C32.9477 119 32.8077 118.967 32.7143 118.902C32.621 118.837 32.5743 118.706 32.5743 118.51C32.5743 118.277 32.621 118.118 32.7143 118.034C32.7983 117.95 32.9383 117.908 33.1343 117.908H34.1003C34.3337 117.908 34.5017 117.857 34.6043 117.754C34.7163 117.642 34.7723 117.446 34.7723 117.166V113.414C34.7723 113.321 34.819 113.274 34.9123 113.274H35.8083C35.9017 113.274 35.9483 113.321 35.9483 113.414V117.236C35.9483 117.843 35.8223 118.291 35.5703 118.58C35.3183 118.86 34.8983 119 34.3103 119H33.1343ZM35.4443 121.604C35.351 121.604 35.3043 121.557 35.3043 121.464V120.442C35.3043 120.349 35.351 120.302 35.4443 120.302H36.3963C36.4897 120.302 36.5363 120.349 36.5363 120.442V121.464C36.5363 121.557 36.4897 121.604 36.3963 121.604H35.4443ZM33.7363 121.604C33.643 121.604 33.5963 121.557 33.5963 121.464V120.442C33.5963 120.349 33.643 120.302 33.7363 120.302H34.6883C34.7817 120.302 34.8283 120.349 34.8283 120.442V121.464C34.8283 121.557 34.7817 121.604 34.6883 121.604H33.7363ZM43.0655 116.956C43.0655 117.273 43.1775 117.511 43.4015 117.67C43.6348 117.829 43.9428 117.908 44.3255 117.908H44.4795C44.6661 117.908 44.8061 117.95 44.8995 118.034C44.9928 118.109 45.0395 118.239 45.0395 118.426C45.0395 118.669 44.9928 118.827 44.8995 118.902C44.8155 118.967 44.6755 119 44.4795 119H44.1855C43.8681 119 43.5835 118.935 43.3315 118.804C43.0795 118.664 42.9021 118.459 42.7995 118.188C42.6408 118.496 42.4215 118.711 42.1415 118.832C41.8615 118.944 41.4975 119 41.0495 119H37.9415C37.8481 119 37.8015 118.953 37.8015 118.86V118.048C37.8015 117.955 37.8481 117.908 37.9415 117.908H40.6155C40.8768 117.908 41.0868 117.889 41.2455 117.852C41.4041 117.805 41.5255 117.735 41.6095 117.642C41.6935 117.539 41.7495 117.409 41.7775 117.25C41.8055 117.091 41.8195 116.891 41.8195 116.648V115.528C41.8195 114.585 41.2875 114.114 40.2235 114.114H38.5995C38.5061 114.114 38.4595 114.067 38.4595 113.974V113.162C38.4595 113.069 38.5061 113.022 38.5995 113.022H40.6575C41.3668 113.022 41.9455 113.223 42.3935 113.624C42.8415 114.025 43.0655 114.655 43.0655 115.514V116.956ZM48.29 113.022C49.2886 113.022 50.026 113.218 50.502 113.61C50.978 114.002 51.216 114.534 51.216 115.206C51.216 115.505 51.1646 115.794 51.062 116.074C50.9686 116.345 50.8426 116.597 50.684 116.83C50.5346 117.054 50.362 117.259 50.166 117.446C49.9793 117.623 49.7926 117.768 49.606 117.88C49.6713 117.899 49.7366 117.908 49.802 117.908C49.8766 117.908 49.9513 117.908 50.026 117.908H52.084C52.2706 117.908 52.4106 117.941 52.504 118.006C52.5973 118.071 52.644 118.202 52.644 118.398C52.644 118.631 52.5973 118.79 52.504 118.874C52.42 118.958 52.28 119 52.084 119H50.11C49.774 119 49.452 118.972 49.144 118.916C48.8453 118.851 48.5606 118.734 48.29 118.566C47.982 118.734 47.6553 118.851 47.31 118.916C46.9646 118.972 46.6566 119 46.386 119H44.482C44.1086 119 43.922 118.813 43.922 118.44C43.922 118.207 43.9686 118.062 44.062 118.006C44.146 117.941 44.286 117.908 44.482 117.908H46.288C46.4093 117.908 46.568 117.903 46.764 117.894C46.9693 117.875 47.2073 117.829 47.478 117.754C47.4033 117.381 47.3006 117.063 47.17 116.802C47.0486 116.541 46.904 116.312 46.736 116.116C46.568 115.911 46.3813 115.733 46.176 115.584C45.98 115.435 45.7793 115.285 45.574 115.136C45.49 115.08 45.434 115.033 45.406 114.996C45.3873 114.949 45.378 114.903 45.378 114.856V114.016C45.378 113.885 45.4246 113.792 45.518 113.736C45.63 113.671 45.7746 113.596 45.952 113.512C46.1386 113.428 46.3486 113.349 46.582 113.274C46.8246 113.199 47.0906 113.139 47.38 113.092C47.6693 113.045 47.9726 113.022 48.29 113.022ZM48.29 114.114C47.87 114.114 47.5013 114.161 47.184 114.254C46.8666 114.338 46.6566 114.413 46.554 114.478C47.03 114.749 47.4453 115.127 47.8 115.612C48.164 116.097 48.4253 116.676 48.584 117.348C48.7333 117.255 48.892 117.138 49.06 116.998C49.228 116.849 49.3773 116.69 49.508 116.522C49.648 116.345 49.76 116.153 49.844 115.948C49.9373 115.733 49.984 115.514 49.984 115.29C49.984 115.057 49.9373 114.865 49.844 114.716C49.76 114.567 49.6433 114.45 49.494 114.366C49.3446 114.273 49.1626 114.207 48.948 114.17C48.7426 114.133 48.5233 114.114 48.29 114.114ZM52.1815 119C51.9949 119 51.8549 118.967 51.7615 118.902C51.6682 118.837 51.6215 118.706 51.6215 118.51C51.6215 118.277 51.6682 118.118 51.7615 118.034C51.8455 117.95 51.9855 117.908 52.1815 117.908H53.1335C53.3669 117.908 53.5349 117.857 53.6375 117.754C53.7495 117.642 53.8055 117.446 53.8055 117.166V113.414C53.8055 113.321 53.8522 113.274 53.9455 113.274H54.8415C54.9349 113.274 54.9815 113.321 54.9815 113.414V116.956C54.9815 117.273 55.0935 117.511 55.3175 117.67C55.5509 117.829 55.8589 117.908 56.2415 117.908H56.4095C56.5962 117.908 56.7362 117.95 56.8295 118.034C56.9229 118.109 56.9695 118.239 56.9695 118.426C56.9695 118.669 56.9229 118.827 56.8295 118.902C56.7455 118.967 56.6055 119 56.4095 119H56.1015C55.8029 119 55.5415 118.939 55.3175 118.818C55.0935 118.697 54.9209 118.515 54.7995 118.272C54.5662 118.757 54.0809 119 53.3435 119H52.1815ZM54.7435 111.888C54.6502 111.888 54.6035 111.841 54.6035 111.748V110.726C54.6035 110.633 54.6502 110.586 54.7435 110.586H55.6955C55.7889 110.586 55.8355 110.633 55.8355 110.726V111.748C55.8355 111.841 55.7889 111.888 55.6955 111.888H54.7435ZM53.0355 111.888C52.9422 111.888 52.8955 111.841 52.8955 111.748V110.726C52.8955 110.633 52.9422 110.586 53.0355 110.586H53.9875C54.0809 110.586 54.1275 110.633 54.1275 110.726V111.748C54.1275 111.841 54.0809 111.888 53.9875 111.888H53.0355ZM56.4039 119C56.2172 119 56.0772 118.967 55.9839 118.902C55.8905 118.837 55.8439 118.706 55.8439 118.51C55.8439 118.277 55.8905 118.118 55.9839 118.034C56.0679 117.95 56.2079 117.908 56.4039 117.908H57.2859C57.5192 117.908 57.6872 117.857 57.7899 117.754C57.9019 117.642 57.9579 117.446 57.9579 117.166V109.62C57.9579 109.527 58.0045 109.48 58.0979 109.48H58.9939C59.0872 109.48 59.1339 109.527 59.1339 109.62V117.236C59.1339 117.843 59.0079 118.291 58.7559 118.58C58.5039 118.86 58.0839 119 57.4959 119H56.4039ZM66.7762 119.098C65.9455 119.098 65.2922 118.86 64.8162 118.384C64.3402 117.908 64.1022 117.138 64.1022 116.074C64.1022 115.001 64.3402 114.226 64.8162 113.75C65.2922 113.265 65.9455 113.022 66.7762 113.022C67.6069 113.022 68.2602 113.265 68.7362 113.75C69.2122 114.226 69.4502 115.001 69.4502 116.074C69.4502 116.606 69.3849 117.063 69.2542 117.446C69.1329 117.829 68.9555 118.141 68.7222 118.384C68.4982 118.627 68.2182 118.809 67.8822 118.93C67.5555 119.042 67.1869 119.098 66.7762 119.098ZM66.7762 114.114C66.2535 114.114 65.8709 114.287 65.6282 114.632C65.3949 114.977 65.2782 115.458 65.2782 116.074C65.2782 116.746 65.3949 117.236 65.6282 117.544C65.8709 117.852 66.2535 118.006 66.7762 118.006C67.2989 118.006 67.6769 117.852 67.9102 117.544C68.1529 117.236 68.2742 116.746 68.2742 116.074C68.2742 115.458 68.1529 114.977 67.9102 114.632C67.6769 114.287 67.2989 114.114 66.7762 114.114ZM70.3661 121.786C70.2728 121.786 70.2261 121.739 70.2261 121.646V120.834C70.2261 120.741 70.2728 120.694 70.3661 120.694H70.6881C71.4441 120.694 71.8221 120.297 71.8221 119.504V113.414C71.8221 113.321 71.8688 113.274 71.9621 113.274H72.8581C72.9515 113.274 72.9981 113.321 72.9981 113.414V119.476C72.9981 120.232 72.8068 120.806 72.4241 121.198C72.0415 121.59 71.4815 121.786 70.7441 121.786H70.3661ZM75.8639 121.786C75.7705 121.786 75.7239 121.739 75.7239 121.646V120.834C75.7239 120.741 75.7705 120.694 75.8639 120.694H77.5439C77.7305 120.694 77.9032 120.671 78.0619 120.624C78.2205 120.587 78.3559 120.517 78.4679 120.414C78.5892 120.321 78.6825 120.185 78.7479 120.008C78.8132 119.84 78.8459 119.625 78.8459 119.364V119H77.3479C76.9372 119 76.5639 118.953 76.2279 118.86C75.9012 118.757 75.6212 118.599 75.3879 118.384C75.1545 118.16 74.9772 117.866 74.8559 117.502C74.7345 117.138 74.6739 116.69 74.6739 116.158C74.6739 115.626 74.7439 115.164 74.8839 114.772C75.0332 114.371 75.2292 114.044 75.4719 113.792C75.7239 113.531 76.0132 113.339 76.3399 113.218C76.6665 113.087 77.0119 113.022 77.3759 113.022C78.2065 113.022 78.8552 113.265 79.3219 113.75C79.7885 114.226 80.0219 115.001 80.0219 116.074V117.908H80.9879C81.1745 117.908 81.3145 117.95 81.4079 118.034C81.5012 118.109 81.5479 118.239 81.5479 118.426C81.5479 118.669 81.5012 118.827 81.4079 118.902C81.3239 118.967 81.1839 119 80.9879 119H80.0219V119.336C80.0219 119.775 79.9612 120.148 79.8399 120.456C79.7279 120.764 79.5645 121.016 79.3499 121.212C79.1445 121.408 78.8925 121.553 78.5939 121.646C78.2952 121.739 77.9639 121.786 77.5999 121.786H75.8639ZM77.3759 114.114C76.9092 114.114 76.5359 114.301 76.2559 114.674C75.9852 115.047 75.8499 115.542 75.8499 116.158C75.8499 116.821 75.9805 117.278 76.2419 117.53C76.5125 117.782 76.9092 117.908 77.4319 117.908H78.8459V116.074C78.8459 115.458 78.7292 114.977 78.4959 114.632C78.2719 114.287 77.8985 114.114 77.3759 114.114ZM80.9996 119C80.8129 119 80.6729 118.967 80.5796 118.902C80.4862 118.837 80.4396 118.706 80.4396 118.51C80.4396 118.277 80.4862 118.118 80.5796 118.034C80.6636 117.95 80.8036 117.908 80.9996 117.908H81.8816C82.1149 117.908 82.2829 117.857 82.3856 117.754C82.4976 117.642 82.5536 117.446 82.5536 117.166V113.414C82.5536 113.321 82.6002 113.274 82.6936 113.274H83.5896C83.6829 113.274 83.7296 113.321 83.7296 113.414V113.89C84.1869 113.647 84.6956 113.442 85.2556 113.274C85.8156 113.106 86.3896 113.022 86.9776 113.022C87.6309 113.022 88.1722 113.111 88.6016 113.288C89.0309 113.465 89.3716 113.708 89.6236 114.016C89.8849 114.315 90.0669 114.665 90.1696 115.066C90.2722 115.467 90.3236 115.892 90.3236 116.34C90.3236 116.461 90.3189 116.578 90.3096 116.69C90.3096 116.793 90.3096 116.881 90.3096 116.956C90.3096 117.273 90.4216 117.511 90.6456 117.67C90.8789 117.829 91.1869 117.908 91.5696 117.908H91.7236C91.9102 117.908 92.0502 117.95 92.1436 118.034C92.2369 118.109 92.2836 118.239 92.2836 118.426C92.2836 118.669 92.2369 118.827 92.1436 118.902C92.0596 118.967 91.9196 119 91.7236 119H91.4296C91.1029 119 90.8089 118.925 90.5476 118.776C90.2956 118.627 90.1182 118.412 90.0156 118.132C89.8569 118.449 89.6282 118.673 89.3296 118.804C89.0402 118.935 88.6669 119 88.2096 119H83.5056C83.2816 119 83.1229 118.939 83.0296 118.818C82.7962 118.939 82.4836 119 82.0916 119H80.9996ZM86.8936 114.114C86.6136 114.114 86.3289 114.142 86.0396 114.198C85.7502 114.245 85.4656 114.31 85.1856 114.394C84.9149 114.478 84.6536 114.571 84.4016 114.674C84.1589 114.777 83.9349 114.879 83.7296 114.982V117.236C83.7296 117.469 83.7062 117.693 83.6596 117.908H87.8036C88.0649 117.908 88.2796 117.885 88.4476 117.838C88.6156 117.791 88.7462 117.712 88.8396 117.6C88.9329 117.479 88.9936 117.315 89.0216 117.11C89.0589 116.895 89.0776 116.625 89.0776 116.298C89.0776 115.953 89.0402 115.645 88.9656 115.374C88.9002 115.103 88.7836 114.875 88.6156 114.688C88.4476 114.501 88.2236 114.361 87.9436 114.268C87.6636 114.165 87.3136 114.114 86.8936 114.114ZM91.7183 119C91.5316 119 91.3916 118.967 91.2983 118.902C91.205 118.837 91.1583 118.706 91.1583 118.51C91.1583 118.277 91.205 118.118 91.2983 118.034C91.3823 117.95 91.5223 117.908 91.7183 117.908H92.6003C92.8336 117.908 93.0016 117.857 93.1043 117.754C93.2163 117.642 93.2723 117.446 93.2723 117.166V109.62C93.2723 109.527 93.319 109.48 93.4123 109.48H94.3083C94.4016 109.48 94.4483 109.527 94.4483 109.62V117.236C94.4483 117.843 94.3223 118.291 94.0703 118.58C93.8183 118.86 93.3983 119 92.8103 119H91.7183ZM97.5794 118.86C97.5794 118.953 97.5327 119 97.4394 119H96.5434C96.4501 119 96.4034 118.953 96.4034 118.86V109.62C96.4034 109.527 96.4501 109.48 96.5434 109.48H97.4394C97.5327 109.48 97.5794 109.527 97.5794 109.62V118.86ZM108.078 116.914C108.376 117.026 108.666 117.143 108.946 117.264C109.226 117.376 109.496 117.483 109.758 117.586C110.028 117.679 110.294 117.759 110.556 117.824C110.817 117.88 111.083 117.908 111.354 117.908H112.488C112.674 117.908 112.814 117.941 112.908 118.006C113.001 118.071 113.048 118.202 113.048 118.398C113.048 118.631 113.001 118.79 112.908 118.874C112.824 118.958 112.684 119 112.488 119H111.494C111.54 119.075 111.596 119.196 111.662 119.364C111.727 119.541 111.76 119.733 111.76 119.938C111.76 120.162 111.713 120.381 111.62 120.596C111.536 120.82 111.391 121.021 111.186 121.198C110.98 121.375 110.71 121.515 110.374 121.618C110.038 121.73 109.627 121.786 109.142 121.786H105.866C104.774 121.786 103.943 121.511 103.374 120.96C102.804 120.419 102.52 119.672 102.52 118.72C102.52 118.169 102.608 117.642 102.786 117.138C102.972 116.625 103.187 116.195 103.43 115.85C103.467 115.785 103.532 115.78 103.626 115.836L104.396 116.256C104.47 116.303 104.484 116.363 104.438 116.438C104.27 116.699 104.106 117.021 103.948 117.404C103.798 117.787 103.724 118.188 103.724 118.608C103.724 118.991 103.784 119.313 103.906 119.574C104.036 119.845 104.209 120.059 104.424 120.218C104.638 120.377 104.881 120.489 105.152 120.554C105.432 120.629 105.726 120.666 106.034 120.666H109.128C109.688 120.666 110.075 120.582 110.29 120.414C110.514 120.246 110.626 120.045 110.626 119.812C110.626 119.607 110.56 119.429 110.43 119.28C110.308 119.131 110.122 118.995 109.87 118.874C109.627 118.743 109.319 118.613 108.946 118.482C108.582 118.351 108.162 118.197 107.686 118.02C107.602 117.992 107.574 117.936 107.602 117.852L107.91 117.012C107.938 116.919 107.994 116.886 108.078 116.914ZM107.49 124.208C107.396 124.208 107.35 124.161 107.35 124.068V123.046C107.35 122.953 107.396 122.906 107.49 122.906H108.442C108.535 122.906 108.582 122.953 108.582 123.046V124.068C108.582 124.161 108.535 124.208 108.442 124.208H107.49ZM105.782 124.208C105.688 124.208 105.642 124.161 105.642 124.068V123.046C105.642 122.953 105.688 122.906 105.782 122.906H106.734C106.827 122.906 106.874 122.953 106.874 123.046V124.068C106.874 124.161 106.827 124.208 106.734 124.208H105.782ZM112.486 119C112.299 119 112.159 118.967 112.066 118.902C111.973 118.837 111.926 118.706 111.926 118.51C111.926 118.277 111.973 118.118 112.066 118.034C112.15 117.95 112.29 117.908 112.486 117.908H113.368C113.601 117.908 113.769 117.857 113.872 117.754C113.984 117.642 114.04 117.446 114.04 117.166V109.62C114.04 109.527 114.087 109.48 114.18 109.48H115.076C115.169 109.48 115.216 109.527 115.216 109.62V116.956C115.216 117.273 115.328 117.511 115.552 117.67C115.785 117.829 116.093 117.908 116.476 117.908H116.644C116.831 117.908 116.971 117.95 117.064 118.034C117.157 118.109 117.204 118.239 117.204 118.426C117.204 118.669 117.157 118.827 117.064 118.902C116.98 118.967 116.84 119 116.644 119H116.336C116.037 119 115.776 118.939 115.552 118.818C115.328 118.697 115.155 118.515 115.034 118.272C114.801 118.757 114.315 119 113.578 119H112.486ZM123.082 117.908C123.176 117.908 123.222 117.955 123.222 118.048V118.86C123.222 118.953 123.176 119 123.082 119H116.628C116.255 119 116.068 118.813 116.068 118.44C116.068 118.207 116.115 118.062 116.208 118.006C116.292 117.941 116.432 117.908 116.628 117.908H118.224C118.01 117.693 117.828 117.423 117.678 117.096C117.529 116.769 117.454 116.377 117.454 115.92C117.454 115.631 117.496 115.318 117.58 114.982C117.664 114.637 117.818 114.319 118.042 114.03C118.266 113.741 118.57 113.503 118.952 113.316C119.344 113.12 119.844 113.022 120.45 113.022C121.001 113.022 121.477 113.125 121.878 113.33C122.28 113.526 122.602 113.801 122.844 114.156C122.891 114.231 122.877 114.296 122.802 114.352L122.186 114.856C122.112 114.912 122.046 114.907 121.99 114.842C121.57 114.357 121.043 114.114 120.408 114.114C119.83 114.114 119.4 114.287 119.12 114.632C118.84 114.968 118.7 115.393 118.7 115.906C118.7 116.251 118.756 116.545 118.868 116.788C118.98 117.031 119.106 117.231 119.246 117.39C119.396 117.549 119.545 117.67 119.694 117.754C119.844 117.829 119.96 117.88 120.044 117.908H123.082ZM128.288 117.908C128.522 117.908 128.69 117.857 128.792 117.754C128.904 117.642 128.96 117.446 128.96 117.166V109.62C128.96 109.527 129.007 109.48 129.1 109.48H129.996C130.09 109.48 130.136 109.527 130.136 109.62V113.89C130.594 113.647 131.102 113.442 131.662 113.274C132.222 113.106 132.796 113.022 133.384 113.022C134.038 113.022 134.579 113.111 135.008 113.288C135.438 113.465 135.778 113.708 136.03 114.016C136.292 114.315 136.474 114.665 136.576 115.066C136.679 115.467 136.73 115.892 136.73 116.34C136.73 116.461 136.726 116.578 136.716 116.69C136.716 116.793 136.716 116.881 136.716 116.956C136.716 117.273 136.828 117.511 137.052 117.67C137.286 117.829 137.594 117.908 137.976 117.908H138.116C138.303 117.908 138.443 117.95 138.536 118.034C138.63 118.109 138.676 118.239 138.676 118.426C138.676 118.669 138.63 118.827 138.536 118.902C138.452 118.967 138.312 119 138.116 119H137.836C137.51 119 137.216 118.925 136.954 118.776C136.702 118.627 136.525 118.412 136.422 118.132C136.264 118.449 136.035 118.673 135.736 118.804C135.447 118.935 135.074 119 134.616 119H129.912C129.688 119 129.53 118.939 129.436 118.818C129.203 118.939 128.89 119 128.498 119H127.728C127.635 119 127.588 118.953 127.588 118.86V118.048C127.588 117.955 127.635 117.908 127.728 117.908H128.288ZM133.3 114.114C133.02 114.114 132.736 114.142 132.446 114.198C132.157 114.245 131.872 114.31 131.592 114.394C131.322 114.478 131.06 114.571 130.808 114.674C130.566 114.777 130.342 114.879 130.136 114.982V117.236C130.136 117.469 130.113 117.693 130.066 117.908H134.21C134.472 117.908 134.686 117.885 134.854 117.838C135.022 117.791 135.153 117.712 135.246 117.6C135.34 117.479 135.4 117.315 135.428 117.11C135.466 116.895 135.484 116.625 135.484 116.298C135.484 115.953 135.447 115.645 135.372 115.374C135.307 115.103 135.19 114.875 135.022 114.688C134.854 114.501 134.63 114.361 134.35 114.268C134.07 114.165 133.72 114.114 133.3 114.114ZM141.942 113.022C142.941 113.022 143.678 113.218 144.154 113.61C144.63 114.002 144.868 114.534 144.868 115.206C144.868 115.505 144.817 115.794 144.714 116.074C144.621 116.345 144.495 116.597 144.336 116.83C144.187 117.054 144.014 117.259 143.818 117.446C143.632 117.623 143.445 117.768 143.258 117.88C143.324 117.899 143.389 117.908 143.454 117.908C143.529 117.908 143.604 117.908 143.678 117.908H145.736C145.923 117.908 146.063 117.941 146.156 118.006C146.25 118.071 146.296 118.202 146.296 118.398C146.296 118.631 146.25 118.79 146.156 118.874C146.072 118.958 145.932 119 145.736 119H143.762C143.426 119 143.104 118.972 142.796 118.916C142.498 118.851 142.213 118.734 141.942 118.566C141.634 118.734 141.308 118.851 140.962 118.916C140.617 118.972 140.309 119 140.038 119H138.134C137.761 119 137.574 118.813 137.574 118.44C137.574 118.207 137.621 118.062 137.714 118.006C137.798 117.941 137.938 117.908 138.134 117.908H139.94C140.062 117.908 140.22 117.903 140.416 117.894C140.622 117.875 140.86 117.829 141.13 117.754C141.056 117.381 140.953 117.063 140.822 116.802C140.701 116.541 140.556 116.312 140.388 116.116C140.22 115.911 140.034 115.733 139.828 115.584C139.632 115.435 139.432 115.285 139.226 115.136C139.142 115.08 139.086 115.033 139.058 114.996C139.04 114.949 139.03 114.903 139.03 114.856V114.016C139.03 113.885 139.077 113.792 139.17 113.736C139.282 113.671 139.427 113.596 139.604 113.512C139.791 113.428 140.001 113.349 140.234 113.274C140.477 113.199 140.743 113.139 141.032 113.092C141.322 113.045 141.625 113.022 141.942 113.022ZM141.942 114.114C141.522 114.114 141.154 114.161 140.836 114.254C140.519 114.338 140.309 114.413 140.206 114.478C140.682 114.749 141.098 115.127 141.452 115.612C141.816 116.097 142.078 116.676 142.236 117.348C142.386 117.255 142.544 117.138 142.712 116.998C142.88 116.849 143.03 116.69 143.16 116.522C143.3 116.345 143.412 116.153 143.496 115.948C143.59 115.733 143.636 115.514 143.636 115.29C143.636 115.057 143.59 114.865 143.496 114.716C143.412 114.567 143.296 114.45 143.146 114.366C142.997 114.273 142.815 114.207 142.6 114.17C142.395 114.133 142.176 114.114 141.942 114.114ZM141.466 111.888C141.373 111.888 141.326 111.841 141.326 111.748V110.726C141.326 110.633 141.373 110.586 141.466 110.586H142.418C142.512 110.586 142.558 110.633 142.558 110.726V111.748C142.558 111.841 142.512 111.888 142.418 111.888H141.466ZM145.736 119C145.549 119 145.409 118.967 145.316 118.902C145.223 118.837 145.176 118.706 145.176 118.51C145.176 118.277 145.223 118.118 145.316 118.034C145.4 117.95 145.54 117.908 145.736 117.908H146.618C146.851 117.908 147.019 117.857 147.122 117.754C147.234 117.642 147.29 117.446 147.29 117.166V113.414C147.29 113.321 147.337 113.274 147.43 113.274H148.326C148.419 113.274 148.466 113.321 148.466 113.414V113.89C148.923 113.647 149.432 113.442 149.992 113.274C150.552 113.106 151.126 113.022 151.714 113.022C152.367 113.022 152.909 113.111 153.338 113.288C153.767 113.465 154.108 113.708 154.36 114.016C154.621 114.315 154.803 114.665 154.906 115.066C155.009 115.467 155.06 115.892 155.06 116.34C155.06 116.835 155.018 117.255 154.934 117.6C154.859 117.936 154.738 118.211 154.57 118.426C154.402 118.631 154.183 118.781 153.912 118.874C153.641 118.958 153.319 119 152.946 119H148.242C148.018 119 147.859 118.939 147.766 118.818C147.533 118.939 147.22 119 146.828 119H145.736ZM151.63 114.114C151.35 114.114 151.065 114.142 150.776 114.198C150.487 114.245 150.202 114.31 149.922 114.394C149.651 114.478 149.39 114.571 149.138 114.674C148.895 114.777 148.671 114.879 148.466 114.982V117.236C148.466 117.469 148.443 117.693 148.396 117.908H152.54C152.801 117.908 153.016 117.885 153.184 117.838C153.352 117.791 153.483 117.712 153.576 117.6C153.669 117.479 153.73 117.315 153.758 117.11C153.795 116.895 153.814 116.625 153.814 116.298C153.814 115.953 153.777 115.645 153.702 115.374C153.637 115.103 153.52 114.875 153.352 114.688C153.184 114.501 152.96 114.361 152.68 114.268C152.4 114.165 152.05 114.114 151.63 114.114ZM151.224 111.888C151.131 111.888 151.084 111.841 151.084 111.748V110.726C151.084 110.633 151.131 110.586 151.224 110.586H152.176C152.269 110.586 152.316 110.633 152.316 110.726V111.748C152.316 111.841 152.269 111.888 152.176 111.888H151.224ZM157.982 118.86C157.982 118.953 157.935 119 157.842 119H156.946C156.852 119 156.806 118.953 156.806 118.86V109.62C156.806 109.527 156.852 109.48 156.946 109.48H157.842C157.935 109.48 157.982 109.527 157.982 109.62V118.86Z" fill="#E3BB47"/>
<g clip-path="url(#clip0_919_1262)">
<path fill-rule="evenodd" clip-rule="evenodd" d="M120.554 71.325C120.741 71.5127 120.847 71.7672 120.847 72.0325C120.846 72.2977 120.741 72.5521 120.553 72.7395C120.365 72.927 120.111 73.0322 119.846 73.0321C119.58 73.0319 119.326 72.9264 119.139 72.7387L116.6 70.2V78.2352C116.6 78.5004 116.495 78.7547 116.307 78.9423C116.12 79.1298 115.865 79.2352 115.6 79.2352C115.335 79.2352 115.08 79.1298 114.893 78.9423C114.705 78.7547 114.6 78.5004 114.6 78.2352V70.2L112.061 72.7383C111.872 72.9152 111.621 73.0116 111.362 73.0072C111.102 73.0027 110.855 72.8978 110.672 72.7145C110.488 72.5312 110.383 72.2838 110.379 72.0246C110.375 71.7654 110.471 71.5146 110.648 71.325L114.893 67.079C115.08 66.8915 115.335 66.7862 115.6 66.7862C115.866 66.7862 116.12 66.8915 116.308 67.079L120.554 71.325ZM125.923 74.2637C126.087 72.9081 125.983 71.5334 125.617 70.218C125.25 68.9026 124.628 67.6724 123.785 66.5975C122.943 65.5227 121.897 64.6242 120.708 63.9536C119.518 63.2829 118.208 62.8531 116.853 62.6887C116.43 62.6373 116.005 62.6113 115.579 62.6108C113.577 62.6149 111.618 63.1969 109.939 64.287C108.26 65.3771 106.931 66.9289 106.112 68.7559C105.293 70.583 105.019 72.6076 105.322 74.5866C105.626 76.5657 106.495 78.4149 107.824 79.9123C109.153 81.4096 110.886 82.4914 112.815 83.0276C114.744 83.5639 116.787 83.5318 118.699 82.9352C120.61 82.3387 122.308 81.203 123.59 79.6647C124.871 78.1264 125.681 76.2508 125.923 74.2632V74.2637ZM71.8665 78.3762H104.42C103.411 76.2737 103.015 73.9292 103.279 71.612C103.542 69.2949 104.454 67.099 105.909 65.2767C107.365 63.4545 109.305 62.0798 111.506 61.3106C113.708 60.5414 116.082 60.4089 118.355 60.9284V53.0474L111.77 46.4608L98.1091 56.3085L102.182 59.1634C102.292 59.2376 102.387 59.333 102.46 59.4441C102.533 59.5552 102.583 59.6798 102.607 59.8105C102.632 59.9413 102.63 60.0756 102.601 60.2055C102.573 60.3355 102.519 60.4585 102.443 60.5674C102.367 60.6763 102.269 60.7689 102.157 60.8397C102.044 60.9106 101.919 60.9583 101.788 60.98C101.656 61.0017 101.522 60.9971 101.393 60.9664C101.263 60.9356 101.141 60.8794 101.034 60.8009L80.5091 46.4134L66 58.6834V72.5084C66.0017 74.0638 66.6202 75.555 67.7199 76.6549C68.8196 77.7548 70.3106 78.3736 71.866 78.3755L71.8665 78.3762ZM71.8665 30.5974H112.489C114.044 30.599 115.536 31.2176 116.635 32.3174C117.735 33.4172 118.354 34.9084 118.355 36.4638V50.2185L112.583 44.4463C112.415 44.2782 112.193 44.1753 111.956 44.1561C111.719 44.1369 111.483 44.2025 111.29 44.3413L96.375 55.0938L81.0262 44.3337C80.8452 44.2071 80.6273 44.1439 80.4067 44.154C80.186 44.1642 79.9748 44.247 79.8061 44.3897L66 56.065V36.4638C66.0016 34.9084 66.6202 33.4171 67.72 32.3173C68.8198 31.2175 70.3111 30.5989 71.8665 30.5973V30.5974ZM125.359 65.3649C124.048 63.6869 122.324 62.3776 120.355 61.5649V36.4638C120.353 34.3782 119.523 32.3787 118.049 30.904C116.574 29.4293 114.575 28.5997 112.489 28.5974H71.8665C69.7809 28.5997 67.7813 29.4292 66.3066 30.9039C64.8318 32.3786 64.0023 34.3782 64 36.4638V72.5089C64.0023 74.5946 64.8318 76.5942 66.3065 78.0691C67.7812 79.544 69.7807 80.3738 71.8664 80.3764H105.629C105.698 80.4702 105.769 80.5639 105.841 80.6559C106.845 81.9375 108.092 83.0087 109.51 83.8085C110.928 84.6083 112.49 85.1209 114.106 85.3172C115.722 85.5134 117.361 85.3894 118.929 84.9522C120.497 84.5151 121.964 83.7733 123.246 82.7693C124.527 81.7653 125.599 80.5187 126.398 79.1006C127.198 77.6826 127.711 76.1209 127.907 74.5048C128.103 72.8886 127.979 71.2497 127.542 69.6815C127.105 68.1132 126.363 66.6465 125.359 65.3649ZM95.5302 37.7034C96.4369 37.7034 97.3232 37.9722 98.077 38.4759C98.8308 38.9796 99.4184 39.6955 99.7654 40.5331C100.112 41.3707 100.203 42.2924 100.026 43.1816C99.8495 44.0708 99.4129 44.8876 98.7718 45.5287C98.1308 46.1698 97.314 46.6064 96.4248 46.7833C95.5356 46.9602 94.6139 46.8695 93.7763 46.5225C92.9386 46.1756 92.2227 45.5881 91.719 44.8343C91.2153 44.0804 90.9464 43.1942 90.9464 42.2875C90.9481 41.0723 91.4315 39.9074 92.2908 39.0481C93.1501 38.1888 94.315 37.7053 95.5302 37.7037V37.7034ZM95.5302 48.871C94.2281 48.8711 92.9552 48.485 91.8725 47.7615C90.7898 47.0381 89.9459 46.0099 89.4476 44.8069C88.9492 43.6038 88.8188 42.2801 89.0729 41.0029C89.3269 39.7258 89.9539 38.5527 90.8747 37.6319C91.7954 36.7112 92.9685 36.0841 94.2457 35.8301C95.5228 35.576 96.8466 35.7064 98.0496 36.2047C99.2526 36.703 100.281 37.5468 101.004 38.6295C101.728 39.7122 102.114 40.9851 102.114 42.2873C102.112 44.0328 101.418 45.7062 100.183 46.9404C98.9491 48.1747 97.2757 48.869 95.5302 48.871Z" fill="#E3BB47"/>
</g>
<defs>
<clipPath id="clip0_919_1262">
<rect width="64" height="64" fill="white" transform="translate(64 25)"/>
</clipPath>
</defs>
</svg>
