<svg width="36" height="33" viewBox="0 0 36 33" fill="none" xmlns="http://www.w3.org/2000/svg">
<rect width="35.0625" height="33" rx="8" fill="#2C2B35"/>
<path d="M23.7188 22.6875C24.2658 22.6875 24.7904 22.9048 25.1772 23.2916C25.564 23.6784 25.7812 24.203 25.7812 24.75C25.7812 25.297 25.564 25.8216 25.1772 26.2084C24.7904 26.5952 24.2658 26.8125 23.7188 26.8125C23.1717 26.8125 22.6471 26.5952 22.2603 26.2084C21.8735 25.8216 21.6562 25.297 21.6562 24.75C21.6562 23.6053 22.5741 22.6875 23.7188 22.6875ZM7.21875 6.1875H10.5909L11.5603 8.25H26.8125C27.086 8.25 27.3483 8.35865 27.5417 8.55205C27.7351 8.74544 27.8438 9.00775 27.8438 9.28125C27.8438 9.45656 27.7922 9.63188 27.72 9.79688L24.0281 16.4691C23.6775 17.0981 22.9969 17.5312 22.2234 17.5312H14.5406L13.6125 19.2122L13.5816 19.3359C13.5816 19.4043 13.6087 19.4699 13.6571 19.5182C13.7054 19.5666 13.771 19.5938 13.8394 19.5938H25.7812V21.6562H13.4062C12.8592 21.6562 12.3346 21.439 11.9478 21.0522C11.561 20.6654 11.3438 20.1408 11.3438 19.5938C11.3438 19.2328 11.4366 18.8925 11.5912 18.6038L12.9938 16.0772L9.28125 8.25H7.21875V6.1875ZM13.4062 22.6875C13.9533 22.6875 14.4779 22.9048 14.8647 23.2916C15.2515 23.6784 15.4688 24.203 15.4688 24.75C15.4688 25.297 15.2515 25.8216 14.8647 26.2084C14.4779 26.5952 13.9533 26.8125 13.4062 26.8125C12.8592 26.8125 12.3346 26.5952 11.9478 26.2084C11.561 25.8216 11.3438 25.297 11.3438 24.75C11.3438 23.6053 12.2616 22.6875 13.4062 22.6875ZM22.6875 15.4688L25.5544 10.3125H12.5194L14.9531 15.4688H22.6875Z" fill="white"/>
</svg>
