<svg width="32" height="32" viewBox="0 0 32 32" fill="none" xmlns="http://www.w3.org/2000/svg">
<path d="M23.3761 28.3337H8.62408C7.30931 28.3337 6.0484 27.8114 5.11872 26.8817C4.18904 25.952 3.66675 24.6911 3.66675 23.3763V8.62433C3.66675 7.30956 4.18904 6.04864 5.11872 5.11896C6.0484 4.18928 7.30931 3.66699 8.62408 3.66699H23.3761C24.6908 3.66699 25.9518 4.18928 26.8814 5.11896C27.8111 6.04864 28.3334 7.30956 28.3334 8.62433V23.3763C28.3334 24.6911 27.8111 25.952 26.8814 26.8817C25.9518 27.8114 24.6908 28.3337 23.3761 28.3337ZM6.13141 13.5783V15.493V13.5783ZM25.8794 14.433V16.3477V14.433ZM20.2374 15.7237V20.575V15.7237ZM17.4161 17.433V23.4403V17.433ZM14.5947 15.0643V20.7097V15.0643ZM11.7734 13.5783V18.263V13.5783ZM8.95275 11.419V15.915V11.419ZM23.0581 14.433V18.3903V14.433Z" fill="url(#paint0_linear_651_1554)"/>
<path d="M6.13141 13.5783V15.493M25.8794 14.433V16.3477M20.2374 15.7237V20.575M17.4161 17.433V23.4403M14.5947 15.0643V20.7097M11.7734 13.5783V18.263M8.95275 11.419V15.915M23.0581 14.433V18.3903M23.3761 28.3337H8.62408C7.30931 28.3337 6.0484 27.8114 5.11872 26.8817C4.18904 25.952 3.66675 24.6911 3.66675 23.3763V8.62433C3.66675 7.30956 4.18904 6.04864 5.11872 5.11896C6.0484 4.18928 7.30931 3.66699 8.62408 3.66699H23.3761C24.6908 3.66699 25.9518 4.18928 26.8814 5.11896C27.8111 6.04864 28.3334 7.30956 28.3334 8.62433V23.3763C28.3334 24.6911 27.8111 25.952 26.8814 26.8817C25.9518 27.8114 24.6908 28.3337 23.3761 28.3337Z" stroke="url(#paint1_linear_651_1554)" stroke-linecap="round" stroke-linejoin="round"/>
<path d="M17.416 23.9971C17.6922 23.9971 17.916 23.7732 17.916 23.4971C17.916 23.2209 17.6922 22.9971 17.416 22.9971C17.1399 22.9971 16.916 23.2209 16.916 23.4971C16.916 23.7732 17.1399 23.9971 17.416 23.9971Z" fill="url(#paint2_linear_651_1554)"/>
<defs>
<linearGradient id="paint0_linear_651_1554" x1="16.0001" y1="3.66699" x2="16.0001" y2="28.3337" gradientUnits="userSpaceOnUse">
<stop stop-color="#184A8B"/>
<stop offset="1" stop-color="#63C7FF"/>
</linearGradient>
<linearGradient id="paint1_linear_651_1554" x1="16.0001" y1="3.66699" x2="16.0001" y2="28.3337" gradientUnits="userSpaceOnUse">
<stop stop-color="#184A8B"/>
<stop offset="1" stop-color="#63C7FF"/>
</linearGradient>
<linearGradient id="paint2_linear_651_1554" x1="17.416" y1="22.9971" x2="17.416" y2="23.9971" gradientUnits="userSpaceOnUse">
<stop stop-color="#184A8B"/>
<stop offset="1" stop-color="#63C7FF"/>
</linearGradient>
</defs>
</svg>
