<svg width="92" height="22" viewBox="0 0 92 22" fill="none" xmlns="http://www.w3.org/2000/svg">
<rect width="92" height="22" rx="4" fill="#4CA63D"/>
<path d="M74.0764 7H76.3214L77.0449 8.809L75.8824 9.584C75.8139 9.62967 75.7578 9.69154 75.719 9.76411C75.6801 9.83668 75.6598 9.9177 75.6599 10C75.6614 10.047 75.6599 10.0005 75.6599 10.0005V10.011C75.6602 10.0334 75.6612 10.0557 75.6629 10.078C75.6659 10.119 75.6709 10.1745 75.6804 10.243C75.6999 10.378 75.7374 10.564 75.8104 10.783C75.9574 11.223 76.2454 11.7925 76.8064 12.3535C77.3674 12.9145 77.9369 13.2025 78.3764 13.3495C78.5959 13.4225 78.7814 13.4595 78.9174 13.4795C78.9941 13.4902 79.0714 13.4969 79.1489 13.4995L79.1554 13.5H79.1594C79.1594 13.5 79.2154 13.497 79.1599 13.5C79.2527 13.4999 79.3437 13.4741 79.4226 13.4252C79.5016 13.3764 79.5654 13.3065 79.6069 13.2235L79.9419 12.5535L82.1599 12.9235V15.0835C81.1044 15.236 78.2534 15.3865 76.0134 13.1465C73.7734 10.9065 73.9234 8.055 74.0764 7ZM76.6964 10.243L77.5999 9.641C77.7907 9.51369 77.932 9.32461 78 9.10548C78.068 8.88636 78.0586 8.65051 77.9734 8.4375L77.2499 6.6285C77.1756 6.44295 77.0475 6.28391 76.882 6.17188C76.7165 6.05985 76.5212 5.99999 76.3214 6H74.0504C73.5959 6 73.1684 6.3155 73.0939 6.8085C72.9239 7.9295 72.6934 11.2405 75.3064 13.8535C77.9194 16.4665 81.2304 16.2355 82.3514 16.066C82.8444 15.991 83.1599 15.564 83.1599 15.1095V12.9235C83.1599 12.6868 83.0759 12.4577 82.9229 12.2771C82.77 12.0964 82.5579 11.9759 82.3244 11.937L80.1064 11.5675C79.8954 11.5323 79.6787 11.5656 79.4881 11.6626C79.2975 11.7597 79.143 11.9152 79.0474 12.1065L78.8744 12.453C78.8132 12.4379 78.7526 12.4204 78.6929 12.4005C78.3829 12.2975 77.9524 12.0855 77.5134 11.6465C77.0744 11.2075 76.8624 10.777 76.7594 10.4665C76.7348 10.3931 76.7139 10.3185 76.6969 10.243H76.6964Z" fill="white"/>
<path d="M12.1607 12.51C12.374 12.59 12.5807 12.6733 12.7807 12.76C12.9807 12.84 13.174 12.9167 13.3607 12.99C13.554 13.0567 13.744 13.1133 13.9307 13.16C14.1174 13.2 14.3074 13.22 14.5007 13.22H15.3107C15.444 13.22 15.544 13.2433 15.6107 13.29C15.6774 13.3367 15.7107 13.43 15.7107 13.57C15.7107 13.7367 15.6774 13.85 15.6107 13.91C15.5507 13.97 15.4507 14 15.3107 14H14.6007C14.634 14.0533 14.674 14.14 14.7207 14.26C14.7674 14.3867 14.7907 14.5233 14.7907 14.67C14.7907 14.83 14.7574 14.9867 14.6907 15.14C14.6307 15.3 14.5274 15.4433 14.3807 15.57C14.234 15.6967 14.0407 15.7967 13.8007 15.87C13.5607 15.95 13.2674 15.99 12.9207 15.99H10.5807C9.8007 15.99 9.20736 15.7933 8.8007 15.4C8.39403 15.0133 8.1907 14.48 8.1907 13.8C8.1907 13.4067 8.25403 13.03 8.3807 12.67C8.51403 12.3033 8.66736 11.9967 8.8407 11.75C8.86736 11.7033 8.91403 11.7 8.9807 11.74L9.5307 12.04C9.58403 12.0733 9.59403 12.1167 9.5607 12.17C9.4407 12.3567 9.32403 12.5867 9.2107 12.86C9.10403 13.1333 9.0507 13.42 9.0507 13.72C9.0507 13.9933 9.09403 14.2233 9.1807 14.41C9.27403 14.6033 9.39736 14.7567 9.5507 14.87C9.70403 14.9833 9.87736 15.0633 10.0707 15.11C10.2707 15.1633 10.4807 15.19 10.7007 15.19H12.9107C13.3107 15.19 13.5874 15.13 13.7407 15.01C13.9007 14.89 13.9807 14.7467 13.9807 14.58C13.9807 14.4333 13.934 14.3067 13.8407 14.2C13.754 14.0933 13.6207 13.9967 13.4407 13.91C13.2674 13.8167 13.0474 13.7233 12.7807 13.63C12.5207 13.5367 12.2207 13.4267 11.8807 13.3C11.8207 13.28 11.8007 13.24 11.8207 13.18L12.0407 12.58C12.0607 12.5133 12.1007 12.49 12.1607 12.51ZM11.7407 17.72C11.674 17.72 11.6407 17.6867 11.6407 17.62V16.89C11.6407 16.8233 11.674 16.79 11.7407 16.79H12.4207C12.4874 16.79 12.5207 16.8233 12.5207 16.89V17.62C12.5207 17.6867 12.4874 17.72 12.4207 17.72H11.7407ZM10.5207 17.72C10.454 17.72 10.4207 17.6867 10.4207 17.62V16.89C10.4207 16.8233 10.454 16.79 10.5207 16.79H11.2007C11.2674 16.79 11.3007 16.8233 11.3007 16.89V17.62C11.3007 17.6867 11.2674 17.72 11.2007 17.72H10.5207ZM15.3795 14C15.2462 14 15.1462 13.9767 15.0795 13.93C15.0129 13.8833 14.9795 13.79 14.9795 13.65C14.9795 13.4833 15.0129 13.37 15.0795 13.31C15.1395 13.25 15.2395 13.22 15.3795 13.22H16.0095C16.1762 13.22 16.2962 13.1833 16.3695 13.11C16.4495 13.03 16.4895 12.89 16.4895 12.69V10.01C16.4895 9.94333 16.5229 9.91 16.5895 9.91H17.2295C17.2962 9.91 17.3295 9.94333 17.3295 10.01V12.54C17.3295 12.7667 17.4095 12.9367 17.5695 13.05C17.7362 13.1633 17.9562 13.22 18.2295 13.22H18.3495C18.4829 13.22 18.5829 13.25 18.6495 13.31C18.7162 13.3633 18.7495 13.4567 18.7495 13.59C18.7495 13.7633 18.7162 13.8767 18.6495 13.93C18.5895 13.9767 18.4895 14 18.3495 14H18.1295C17.9162 14 17.7295 13.9567 17.5695 13.87C17.4095 13.7833 17.2862 13.6533 17.1995 13.48C17.0329 13.8267 16.6862 14 16.1595 14H15.3795ZM16.5695 8.92C16.5029 8.92 16.4695 8.88667 16.4695 8.82V8.09C16.4695 8.02333 16.5029 7.99 16.5695 7.99H17.2495C17.3162 7.99 17.3495 8.02333 17.3495 8.09V8.82C17.3495 8.88667 17.3162 8.92 17.2495 8.92H16.5695ZM20.8385 9.73C21.1785 9.73 21.4718 9.77667 21.7185 9.87C21.9652 9.95667 22.1685 10.08 22.3285 10.24C22.4952 10.4 22.6185 10.5933 22.6985 10.82C22.7785 11.04 22.8185 11.2833 22.8185 11.55C22.8185 11.89 22.7385 12.2067 22.5785 12.5C22.4252 12.7933 22.2085 13.0367 21.9285 13.23C21.9618 13.2233 22.0118 13.22 22.0785 13.22H23.4685C23.6018 13.22 23.7018 13.2433 23.7685 13.29C23.8352 13.3367 23.8685 13.43 23.8685 13.57C23.8685 13.7367 23.8352 13.85 23.7685 13.91C23.7085 13.97 23.6085 14 23.4685 14H22.1385C21.8985 14 21.6718 13.99 21.4585 13.97C21.2452 13.95 21.0418 13.88 20.8485 13.76C20.6285 13.88 20.3918 13.95 20.1385 13.97C19.8918 13.99 19.6718 14 19.4785 14H18.2685C18.0018 14 17.8685 13.8667 17.8685 13.6C17.8685 13.4333 17.9018 13.33 17.9685 13.29C18.0285 13.2433 18.1285 13.22 18.2685 13.22H19.7385C19.4652 13.0267 19.2485 12.7867 19.0885 12.5C18.9352 12.2067 18.8585 11.89 18.8585 11.55C18.8585 11.2833 18.8985 11.04 18.9785 10.82C19.0585 10.5933 19.1785 10.4 19.3385 10.24C19.5052 10.08 19.7118 9.95667 19.9585 9.87C20.2052 9.77667 20.4985 9.73 20.8385 9.73ZM20.8385 10.51C20.5185 10.51 20.2552 10.6033 20.0485 10.79C19.8418 10.9767 19.7385 11.2467 19.7385 11.6C19.7385 11.96 19.8452 12.2633 20.0585 12.51C20.2718 12.75 20.5318 12.93 20.8385 13.05C21.1452 12.93 21.4052 12.75 21.6185 12.51C21.8318 12.2633 21.9385 11.96 21.9385 11.6C21.9385 11.2467 21.8352 10.9767 21.6285 10.79C21.4218 10.6033 21.1585 10.51 20.8385 10.51ZM20.4985 8.92C20.4318 8.92 20.3985 8.88667 20.3985 8.82V8.09C20.3985 8.02333 20.4318 7.99 20.4985 7.99H21.1785C21.2452 7.99 21.2785 8.02333 21.2785 8.09V8.82C21.2785 8.88667 21.2452 8.92 21.1785 8.92H20.4985ZM23.4638 14C23.3305 14 23.2305 13.9767 23.1638 13.93C23.0972 13.8833 23.0638 13.79 23.0638 13.65C23.0638 13.4833 23.0972 13.37 23.1638 13.31C23.2238 13.25 23.3238 13.22 23.4638 13.22H24.0938C24.2605 13.22 24.3805 13.1833 24.4538 13.11C24.5338 13.03 24.5738 12.89 24.5738 12.69V7.3C24.5738 7.23333 24.6072 7.2 24.6738 7.2H25.3138C25.3805 7.2 25.4138 7.23333 25.4138 7.3V12.74C25.4138 13.1733 25.3238 13.4933 25.1438 13.7C24.9638 13.9 24.6638 14 24.2438 14H23.4638ZM27.6503 13.9C27.6503 13.9667 27.617 14 27.5503 14H26.9103C26.8436 14 26.8103 13.9667 26.8103 13.9V7.3C26.8103 7.23333 26.8436 7.2 26.9103 7.2H27.5503C27.617 7.2 27.6503 7.23333 27.6503 7.3V13.9ZM33.589 9.73C34.3023 9.73 34.829 9.87 35.169 10.15C35.509 10.43 35.679 10.81 35.679 11.29C35.679 11.5033 35.6456 11.7033 35.579 11.89C35.5123 12.0767 35.4256 12.25 35.319 12.41C35.219 12.57 35.1023 12.7167 34.969 12.85C34.8356 12.9767 34.7056 13.0833 34.579 13.17C34.6523 13.1833 34.7256 13.1967 34.799 13.21C34.8723 13.2167 34.9423 13.22 35.009 13.22H36.469C36.6023 13.22 36.7023 13.2433 36.769 13.29C36.8356 13.3367 36.869 13.43 36.869 13.57C36.869 13.7367 36.8356 13.85 36.769 13.91C36.709 13.97 36.609 14 36.469 14H34.979C34.7856 14 34.579 13.9767 34.359 13.93C34.139 13.8833 33.9423 13.8033 33.769 13.69C33.5756 13.7633 33.3723 13.83 33.159 13.89C32.9456 13.9433 32.7523 14.0033 32.579 14.07C32.4056 14.1367 32.2623 14.22 32.149 14.32C32.0356 14.42 31.979 14.5533 31.979 14.72C31.979 14.88 32.039 15 32.159 15.08C32.2856 15.1667 32.5123 15.21 32.839 15.21H33.799C33.8656 15.21 33.899 15.2433 33.899 15.31V15.89C33.899 15.9567 33.8656 15.99 33.799 15.99H32.769C32.229 15.99 31.819 15.8933 31.539 15.7C31.259 15.5067 31.119 15.18 31.119 14.72C31.119 14.4333 31.179 14.1967 31.299 14.01C31.4256 13.8233 31.5823 13.6733 31.769 13.56C31.9556 13.4467 32.159 13.36 32.379 13.3C32.599 13.2333 32.809 13.18 33.009 13.14C32.9623 12.8733 32.8923 12.6433 32.799 12.45C32.7056 12.2567 32.599 12.09 32.479 11.95C32.359 11.8033 32.2256 11.6767 32.079 11.57C31.939 11.4567 31.7956 11.3467 31.649 11.24C31.589 11.2 31.549 11.1667 31.529 11.14C31.5156 11.1067 31.509 11.0733 31.509 11.04V10.44C31.509 10.3467 31.5423 10.28 31.609 10.24C31.689 10.1933 31.7923 10.14 31.919 10.08C32.0523 10.02 32.2023 9.96333 32.369 9.91C32.5423 9.85667 32.7323 9.81333 32.939 9.78C33.1456 9.74667 33.3623 9.73 33.589 9.73ZM33.589 10.51C33.289 10.51 33.0256 10.5433 32.799 10.61C32.5723 10.67 32.4223 10.7233 32.349 10.77C32.689 10.9633 32.9856 11.2333 33.239 11.58C33.499 11.9267 33.6856 12.34 33.799 12.82C33.9056 12.7533 34.019 12.67 34.139 12.57C34.259 12.4633 34.3656 12.35 34.459 12.23C34.559 12.1033 34.639 11.9667 34.699 11.82C34.7656 11.6667 34.799 11.51 34.799 11.35C34.799 11.1833 34.7656 11.0467 34.699 10.94C34.639 10.8333 34.5556 10.75 34.449 10.69C34.3423 10.6233 34.2123 10.5767 34.059 10.55C33.9123 10.5233 33.7556 10.51 33.589 10.51ZM39.5014 14.07C39.1881 14.07 38.9114 14.0267 38.6714 13.94C38.4314 13.8467 38.2281 13.7033 38.0614 13.51C37.9214 13.7233 37.7414 13.86 37.5214 13.92C37.3014 13.9733 37.0981 14 36.9114 14H36.4814C36.2147 14 36.0814 13.8667 36.0814 13.6C36.0814 13.4333 36.1147 13.33 36.1814 13.29C36.2414 13.2433 36.3414 13.22 36.4814 13.22H36.9814C37.0547 13.22 37.1281 13.2067 37.2014 13.18C37.2747 13.1467 37.3414 13.0967 37.4014 13.03C37.4614 12.9567 37.5081 12.8633 37.5414 12.75C37.5814 12.63 37.6014 12.4833 37.6014 12.31C37.5947 12.2433 37.5914 12.18 37.5914 12.12C37.5914 12.0533 37.5914 11.9833 37.5914 11.91C37.5914 11.1433 37.7614 10.59 38.1014 10.25C38.4414 9.90333 38.9081 9.73 39.5014 9.73C40.0947 9.73 40.5614 9.90333 40.9014 10.25C41.2414 10.59 41.4114 11.1433 41.4114 11.91C41.4114 12.29 41.3647 12.6167 41.2714 12.89C41.1847 13.1633 41.0581 13.3867 40.8914 13.56C40.7314 13.7333 40.5314 13.8633 40.2914 13.95C40.0581 14.03 39.7947 14.07 39.5014 14.07ZM39.5014 10.51C39.1281 10.51 38.8547 10.6333 38.6814 10.88C38.5147 11.1267 38.4314 11.47 38.4314 11.91C38.4314 12.39 38.5147 12.74 38.6814 12.96C38.8547 13.18 39.1281 13.29 39.5014 13.29C39.8747 13.29 40.1447 13.18 40.3114 12.96C40.4847 12.74 40.5714 12.39 40.5714 11.91C40.5714 11.47 40.4847 11.1267 40.3114 10.88C40.1447 10.6333 39.8747 10.51 39.5014 10.51ZM45.4623 11.75C45.4889 11.7033 45.5356 11.7 45.6023 11.74L46.1523 12.04C46.2056 12.0733 46.2156 12.1167 46.1823 12.17C46.0623 12.3567 45.9456 12.5867 45.8323 12.86C45.7256 13.1333 45.6723 13.42 45.6723 13.72C45.6723 14.0067 45.7189 14.2433 45.8123 14.43C45.9123 14.6233 46.0389 14.7733 46.1923 14.88C46.3456 14.9933 46.5123 15.0733 46.6923 15.12C46.8723 15.1667 47.0489 15.19 47.2223 15.19C47.6489 15.19 47.9989 15.08 48.2723 14.86C48.5456 14.64 48.6823 14.2833 48.6823 13.79V7.3C48.6823 7.23333 48.7156 7.2 48.7823 7.2H49.4223C49.4889 7.2 49.5223 7.23333 49.5223 7.3V12.54C49.5223 12.7667 49.6023 12.9367 49.7623 13.05C49.9289 13.1633 50.1489 13.22 50.4223 13.22H50.5323C50.6656 13.22 50.7656 13.25 50.8323 13.31C50.8989 13.3633 50.9323 13.4567 50.9323 13.59C50.9323 13.7633 50.8989 13.8767 50.8323 13.93C50.7723 13.9767 50.6723 14 50.5323 14H50.3223C49.9756 14 49.7089 13.8933 49.5223 13.68V13.8C49.5223 14.4867 49.3189 15.0233 48.9123 15.41C48.5123 15.7967 47.9323 15.99 47.1723 15.99C46.8123 15.99 46.4856 15.94 46.1923 15.84C45.9056 15.7467 45.6589 15.6067 45.4523 15.42C45.2523 15.2333 45.0956 15.0033 44.9823 14.73C44.8689 14.4633 44.8123 14.1533 44.8123 13.8C44.8123 13.4067 44.8756 13.03 45.0023 12.67C45.1356 12.3033 45.2889 11.9967 45.4623 11.75ZM50.5341 14C50.4008 14 50.3008 13.9767 50.2341 13.93C50.1675 13.8833 50.1341 13.79 50.1341 13.65C50.1341 13.4833 50.1675 13.37 50.2341 13.31C50.2941 13.25 50.3941 13.22 50.5341 13.22H51.1641C51.3308 13.22 51.4508 13.1833 51.5241 13.11C51.6041 13.03 51.6441 12.89 51.6441 12.69V10.01C51.6441 9.94333 51.6775 9.91 51.7441 9.91H52.3841C52.4508 9.91 52.4841 9.94333 52.4841 10.01V10.35C52.8108 10.1767 53.1741 10.03 53.5741 9.91C53.9741 9.79 54.3841 9.73 54.8041 9.73C55.2708 9.73 55.6575 9.79333 55.9641 9.92C56.2708 10.0467 56.5141 10.22 56.6941 10.44C56.8808 10.6533 57.0108 10.9033 57.0841 11.19C57.1575 11.4767 57.1941 11.78 57.1941 12.1C57.1941 12.4533 57.1641 12.7533 57.1041 13C57.0508 13.24 56.9641 13.4367 56.8441 13.59C56.7241 13.7367 56.5675 13.8433 56.3741 13.91C56.1808 13.97 55.9508 14 55.6841 14H52.3241C52.1641 14 52.0508 13.9567 51.9841 13.87C51.8175 13.9567 51.5941 14 51.3141 14H50.5341ZM54.7441 10.51C54.5441 10.51 54.3408 10.53 54.1341 10.57C53.9275 10.6033 53.7241 10.65 53.5241 10.71C53.3308 10.77 53.1441 10.8367 52.9641 10.91C52.7908 10.9833 52.6308 11.0567 52.4841 11.13V12.74C52.4841 12.9067 52.4675 13.0667 52.4341 13.22H55.3941C55.5808 13.22 55.7341 13.2033 55.8541 13.17C55.9741 13.1367 56.0675 13.08 56.1341 13C56.2008 12.9133 56.2441 12.7967 56.2641 12.65C56.2908 12.4967 56.3041 12.3033 56.3041 12.07C56.3041 11.8233 56.2775 11.6033 56.2241 11.41C56.1775 11.2167 56.0941 11.0533 55.9741 10.92C55.8541 10.7867 55.6941 10.6867 55.4941 10.62C55.2941 10.5467 55.0441 10.51 54.7441 10.51ZM59.2812 13.9C59.2812 13.9667 59.2478 14 59.1812 14H58.5412C58.4745 14 58.4412 13.9667 58.4412 13.9V7.3C58.4412 7.23333 58.4745 7.2 58.5412 7.2H59.1812C59.2478 7.2 59.2812 7.23333 59.2812 7.3V13.9ZM61.3775 15.99C61.3108 15.99 61.2775 15.9567 61.2775 15.89V15.31C61.2775 15.2433 61.3108 15.21 61.3775 15.21H62.5775C62.7108 15.21 62.8342 15.1933 62.9475 15.16C63.0608 15.1333 63.1575 15.0833 63.2375 15.01C63.3242 14.9433 63.3908 14.8467 63.4375 14.72C63.4842 14.6 63.5075 14.4467 63.5075 14.26V14H62.4375C62.1442 14 61.8775 13.9667 61.6375 13.9C61.4042 13.8267 61.2042 13.7133 61.0375 13.56C60.8708 13.4 60.7442 13.19 60.6575 12.93C60.5708 12.67 60.5275 12.35 60.5275 11.97C60.5275 11.59 60.5775 11.26 60.6775 10.98C60.7842 10.6933 60.9242 10.46 61.0975 10.28C61.2775 10.0933 61.4842 9.95667 61.7175 9.87C61.9508 9.77667 62.1975 9.73 62.4575 9.73C63.0508 9.73 63.5142 9.90333 63.8475 10.25C64.1808 10.59 64.3475 11.1433 64.3475 11.91V13.22H65.0375C65.1708 13.22 65.2708 13.25 65.3375 13.31C65.4042 13.3633 65.4375 13.4567 65.4375 13.59C65.4375 13.7633 65.4042 13.8767 65.3375 13.93C65.2775 13.9767 65.1775 14 65.0375 14H64.3475V14.24C64.3475 14.5533 64.3042 14.82 64.2175 15.04C64.1375 15.26 64.0208 15.44 63.8675 15.58C63.7208 15.72 63.5408 15.8233 63.3275 15.89C63.1142 15.9567 62.8775 15.99 62.6175 15.99H61.3775ZM62.4575 10.51C62.1242 10.51 61.8575 10.6433 61.6575 10.91C61.4642 11.1767 61.3675 11.53 61.3675 11.97C61.3675 12.4433 61.4608 12.77 61.6475 12.95C61.8408 13.13 62.1242 13.22 62.4975 13.22H63.5075V11.91C63.5075 11.47 63.4242 11.1267 63.2575 10.88C63.0975 10.6333 62.8308 10.51 62.4575 10.51ZM65.0459 14C64.9125 14 64.8125 13.9767 64.7459 13.93C64.6792 13.8833 64.6459 13.79 64.6459 13.65C64.6459 13.4833 64.6792 13.37 64.7459 13.31C64.8059 13.25 64.9059 13.22 65.0459 13.22H65.7359C65.9025 13.22 66.0225 13.1833 66.0959 13.11C66.1759 13.03 66.2159 12.89 66.2159 12.69V10.01C66.2159 9.94333 66.2492 9.91 66.3159 9.91H66.9559C67.0225 9.91 67.0559 9.94333 67.0559 10.01V12.74C67.0559 13.1733 66.9659 13.4933 66.7859 13.7C66.6059 13.9 66.3059 14 65.8859 14H65.0459ZM66.9059 8.92C66.8392 8.92 66.8059 8.88667 66.8059 8.82V8.09C66.8059 8.02333 66.8392 7.99 66.9059 7.99H67.5859C67.6525 7.99 67.6859 8.02333 67.6859 8.09V8.82C67.6859 8.88667 67.6525 8.92 67.5859 8.92H66.9059ZM65.6859 8.92C65.6192 8.92 65.5859 8.88667 65.5859 8.82V8.09C65.5859 8.02333 65.6192 7.99 65.6859 7.99H66.3659C66.4325 7.99 66.4659 8.02333 66.4659 8.09V8.82C66.4659 8.88667 66.4325 8.92 66.3659 8.92H65.6859Z" fill="white"/>
</svg>
