<svg width="20" height="20" viewBox="0 0 20 20" fill="none" xmlns="http://www.w3.org/2000/svg">
<path d="M7.34449 9.6765C7.72533 9.35984 8.10949 9.35984 8.49949 9.68567L8.58949 9.76734L12.7445 13.9223L12.8228 13.9915C12.9832 14.1158 13.1833 14.1773 13.3858 14.1645C13.5883 14.1518 13.7792 14.0656 13.9226 13.9221C14.0661 13.7787 14.1523 13.5878 14.165 13.3853C14.1778 13.1829 14.1163 12.9827 13.992 12.8223L13.9228 12.744L12.8462 11.6665L13.0895 11.4223L13.1778 11.3432C13.5587 11.0265 13.9428 11.0265 14.3328 11.3523L14.4228 11.434L18.3178 15.3298C18.2389 16.1234 17.8781 16.8624 17.301 17.4127C16.7238 17.9629 15.9684 18.2881 15.172 18.329L15.0003 18.3332H5.00033C4.17358 18.3331 3.37636 18.0258 2.76346 17.471C2.15055 16.9161 1.76571 16.1533 1.68366 15.3307L7.25616 9.75567L7.34449 9.6765ZM15.0003 1.6665C15.8555 1.6665 16.678 1.9952 17.2977 2.58461C17.9173 3.17401 18.2867 3.97904 18.3295 4.83317L18.3337 4.99984V12.9873L15.5895 10.244L15.4645 10.1298C14.4178 9.21734 13.0895 9.21567 12.0512 10.1157L11.9228 10.2323L11.667 10.4873L9.75616 8.57734L9.63116 8.46317C8.58449 7.55067 7.25616 7.549 6.21783 8.449L6.08949 8.56567L1.66699 12.9873V4.99984C1.66699 4.14464 1.99569 3.32215 2.5851 2.70249C3.1745 2.08284 3.97953 1.71343 4.83366 1.67067L5.00033 1.6665H15.0003ZM12.5087 5.83317L12.4028 5.839C12.2003 5.8631 12.0136 5.96063 11.8782 6.11314C11.7427 6.26565 11.6679 6.46253 11.6679 6.6665C11.6679 6.87047 11.7427 7.06736 11.8782 7.21987C12.0136 7.37237 12.2003 7.46991 12.4028 7.494L12.5003 7.49984L12.6062 7.494C12.8087 7.46991 12.9954 7.37237 13.1308 7.21987C13.2663 7.06736 13.3411 6.87047 13.3411 6.6665C13.3411 6.46253 13.2663 6.26565 13.1308 6.11314C12.9954 5.96063 12.8087 5.8631 12.6062 5.839L12.5087 5.83317Z" fill="#E3BB47"/>
</svg>
