<svg width="15" height="17" viewBox="0 0 15 17" fill="none" xmlns="http://www.w3.org/2000/svg">
<path d="M8.29658 0.796875C8.29658 0.355273 7.94131 0 7.49971 0C7.05811 0 6.70283 0.355273 6.70283 0.796875V3.45312C6.70283 3.89473 7.05811 4.25 7.49971 4.25C7.94131 4.25 8.29658 3.89473 8.29658 3.45312V0.796875ZM5.16885 7.4375H9.83057C10.0563 7.4375 10.2556 7.58027 10.3319 7.78945L10.9628 9.5625H4.03662L4.6708 7.78945C4.74717 7.57695 4.94639 7.4375 5.17217 7.4375H5.16885ZM2.66865 7.07559L1.729 9.70859C1.06162 9.99082 0.593457 10.6516 0.593457 11.4219V15.9375C0.593457 16.5252 1.06826 17 1.65596 17H2.18721C2.7749 17 3.24971 16.5252 3.24971 15.9375V14.875H11.7497V15.9375C11.7497 16.5252 12.2245 17 12.8122 17H13.3435C13.9312 17 14.406 16.5252 14.406 15.9375V11.4219C14.406 10.6516 13.9378 9.99082 13.2704 9.70859L12.3308 7.07559C11.9522 6.01973 10.9528 5.3125 9.83057 5.3125H5.16885C4.04658 5.3125 3.04385 6.01973 2.66865 7.07559ZM3.24971 11.4219C3.46105 11.4219 3.66374 11.5058 3.81318 11.6553C3.96263 11.8047 4.04658 12.0074 4.04658 12.2188C4.04658 12.4301 3.96263 12.6328 3.81318 12.7822C3.66374 12.9317 3.46105 13.0156 3.24971 13.0156C3.03836 13.0156 2.83567 12.9317 2.68623 12.7822C2.53679 12.6328 2.45283 12.4301 2.45283 12.2188C2.45283 12.0074 2.53679 11.8047 2.68623 11.6553C2.83567 11.5058 3.03836 11.4219 3.24971 11.4219ZM10.9528 12.2188C10.9528 12.0074 11.0368 11.8047 11.1862 11.6553C11.3357 11.5058 11.5384 11.4219 11.7497 11.4219C11.9611 11.4219 12.1637 11.5058 12.3132 11.6553C12.4626 11.8047 12.5466 12.0074 12.5466 12.2188C12.5466 12.4301 12.4626 12.6328 12.3132 12.7822C12.1637 12.9317 11.9611 13.0156 11.7497 13.0156C11.5384 13.0156 11.3357 12.9317 11.1862 12.7822C11.0368 12.6328 10.9528 12.4301 10.9528 12.2188ZM0.294629 1.29492C-0.0174805 1.60703 -0.0174805 2.11172 0.294629 2.42051L1.88838 4.01426C2.20049 4.32637 2.70518 4.32637 3.01396 4.01426C3.32275 3.70215 3.32607 3.19746 3.01396 2.88867L1.42354 1.29492C1.11143 0.982813 0.606738 0.982813 0.297949 1.29492H0.294629ZM13.5759 1.29492L11.9821 2.88867C11.67 3.20078 11.67 3.70547 11.9821 4.01426C12.2942 4.32305 12.7989 4.32637 13.1077 4.01426L14.7015 2.42051C15.0136 2.1084 15.0136 1.60371 14.7015 1.29492C14.3894 0.986133 13.8847 0.982813 13.5759 1.29492Z" fill="#E3BB47"/>
</svg>
