<svg width="72" height="74" viewBox="0 0 72 74" fill="none" xmlns="http://www.w3.org/2000/svg">
<path d="M32.083 37.0002C32.083 38.0389 32.4957 39.0351 33.2302 39.7697C33.9647 40.5042 34.9609 40.9168 35.9997 40.9168C37.0384 40.9168 38.0347 40.5042 38.7692 39.7697C39.5037 39.0351 39.9163 38.0389 39.9163 37.0002C39.9163 35.9614 39.5037 34.9652 38.7692 34.2307C38.0347 33.4961 37.0384 33.0835 35.9997 33.0835C34.9609 33.0835 33.9647 33.4961 33.2302 34.2307C32.4957 34.9652 32.083 35.9614 32.083 37.0002Z" stroke="black" stroke-width="2" stroke-linecap="round" stroke-linejoin="round"/>
<path d="M51.2746 68.7642V68.8033M63.5729 58.9725V59.0117M70.3487 44.8333V44.8725M70.3487 29.1667V29.2058M63.5729 15.0275V15.0667M51.2746 5.23583V5.275M35.9996 1.75V1.78917M20.7246 5.23583V5.275M8.42622 15.0275V15.0667M1.65039 29.1667V29.2058M1.65039 44.8333V44.8725M8.42622 58.9725V59.0117M20.7246 68.7642V68.8033M35.9996 72.25V72.2892M16.4162 37C16.4162 42.1938 18.4795 47.1749 22.152 50.8475C25.8246 54.5201 30.8057 56.5833 35.9996 56.5833C41.1934 56.5833 46.1745 54.5201 49.8471 50.8475C53.5197 47.1749 55.5829 42.1938 55.5829 37C55.5829 31.8062 53.5197 26.8251 49.8471 23.1525C46.1745 19.4799 41.1934 17.4167 35.9996 17.4167C30.8057 17.4167 25.8246 19.4799 22.152 23.1525C18.4795 26.8251 16.4162 31.8062 16.4162 37Z" stroke="black" stroke-width="2" stroke-linecap="round" stroke-linejoin="round"/>
</svg>
