<svg width="24" height="20" viewBox="0 0 24 20" fill="none" xmlns="http://www.w3.org/2000/svg">
<path d="M0 19.3337V0.666992H24V19.3337H0ZM1.33333 18.0003H22.6667V2.00033H1.33333V18.0003ZM7.33333 16.0003H8.66667V14.667H10.3067C10.5982 14.667 10.8422 14.5688 11.0387 14.3723C11.2351 14.1759 11.3333 13.9323 11.3333 13.6417V10.359C11.3333 10.0683 11.2351 9.82477 11.0387 9.62832C10.8422 9.43188 10.5987 9.33366 10.308 9.33366H6V6.66699H11.3333V5.33366H8.66667V4.00033H7.33333V5.33366H5.69333C5.40178 5.33366 5.15778 5.43188 4.96133 5.62832C4.76489 5.82477 4.66667 6.06877 4.66667 6.36033V9.64299C4.66667 9.93366 4.76489 10.1772 4.96133 10.3737C5.15778 10.5701 5.40133 10.6683 5.692 10.6683H10V13.335H4.66667V14.6683H7.33333V16.0003ZM17.3333 15.307L19.384 13.2563H15.2827L17.3333 15.307ZM15.2827 7.07766H19.384L17.3333 5.02566L15.2827 7.07766Z" fill="url(#paint0_linear_651_1558)"/>
<defs>
<linearGradient id="paint0_linear_651_1558" x1="12" y1="0.666992" x2="12" y2="19.3337" gradientUnits="userSpaceOnUse">
<stop stop-color="#184A8B"/>
<stop offset="1" stop-color="#63C7FF"/>
</linearGradient>
</defs>
</svg>
