<svg width="32" height="32" viewBox="0 0 32 32" fill="none" xmlns="http://www.w3.org/2000/svg">
<path d="M14.6666 17.3333V12C14.6666 11.2667 14.0666 10.6667 13.3333 10.6667H7.99992V8H13.3333C14.0666 8 14.6666 7.4 14.6666 6.66667C14.6666 5.93333 14.0666 5.33333 13.3333 5.33333H11.3333C11.3333 4.6 10.7333 4 9.99992 4C9.26659 4 8.66659 4.6 8.66659 5.33333H6.66659C5.93325 5.33333 5.33325 5.93333 5.33325 6.66667V12C5.33325 12.7333 5.93325 13.3333 6.66659 13.3333H11.9999V16H6.66659C5.93325 16 5.33325 16.6 5.33325 17.3333C5.33325 18.0667 5.93325 18.6667 6.66659 18.6667H8.66659C8.66659 19.4 9.26659 20 9.99992 20C10.7333 20 11.3333 19.4 11.3333 18.6667H13.3333C14.0666 18.6667 14.6666 18.0667 14.6666 17.3333ZM25.1733 17.6267L18.5733 24.2267L15.7466 21.4C15.4973 21.1507 15.1592 21.0106 14.8066 21.0106C14.454 21.0106 14.1159 21.1507 13.8666 21.4C13.6173 21.6493 13.4772 21.9874 13.4772 22.34C13.4772 22.6926 13.6173 23.0307 13.8666 23.28L17.6399 27.0533C18.1599 27.5733 18.9999 27.5733 19.5199 27.0533L27.0666 19.5067C27.1902 19.3833 27.2883 19.2368 27.3552 19.0755C27.4221 18.9142 27.4565 18.7413 27.4565 18.5667C27.4565 18.392 27.4221 18.2191 27.3552 18.0578C27.2883 17.8965 27.1902 17.75 27.0666 17.6267C26.5333 17.1067 25.6933 17.1067 25.1733 17.6267Z" fill="url(#paint0_linear_651_1552)"/>
<defs>
<linearGradient id="paint0_linear_651_1552" x1="16.3949" y1="4" x2="16.3949" y2="27.4433" gradientUnits="userSpaceOnUse">
<stop stop-color="#184A8B"/>
<stop offset="1" stop-color="#63C7FF"/>
</linearGradient>
</defs>
</svg>
