<svg width="41" height="41" viewBox="0 0 41 41" fill="none" xmlns="http://www.w3.org/2000/svg">
<g filter="url(#filter0_d_569_1408)">
<circle cx="20.5" cy="16.5" r="16.5" fill="white"/>
</g>
<path d="M15.542 21.75V24.4176L16.6151 23.7737L19.9882 21.75H23.3337C24.115 21.75 24.7503 21.1146 24.7503 20.3333V14.6667C24.7503 13.8854 24.115 13.25 23.3337 13.25H14.8337C14.0524 13.25 13.417 13.8854 13.417 14.6667V20.3333C13.417 21.1146 14.0524 21.75 14.8337 21.75H15.542ZM14.8337 14.6667H23.3337V20.3333H19.5958L16.9587 21.9157V20.3333H14.8337V14.6667Z" fill="#581D8A"/>
<path d="M26.1667 10.4166H17.6667C16.8854 10.4166 16.25 11.052 16.25 11.8333H24.75C25.5313 11.8333 26.1667 12.4687 26.1667 13.25V18.9166C26.948 18.9166 27.5833 18.2813 27.5833 17.5V11.8333C27.5833 11.052 26.948 10.4166 26.1667 10.4166Z" fill="#581D8A"/>
<defs>
<filter id="filter0_d_569_1408" x="0" y="0" width="41" height="41" filterUnits="userSpaceOnUse" color-interpolation-filters="sRGB">
<feFlood flood-opacity="0" result="BackgroundImageFix"/>
<feColorMatrix in="SourceAlpha" type="matrix" values="0 0 0 0 0 0 0 0 0 0 0 0 0 0 0 0 0 0 127 0" result="hardAlpha"/>
<feOffset dy="4"/>
<feGaussianBlur stdDeviation="2"/>
<feComposite in2="hardAlpha" operator="out"/>
<feColorMatrix type="matrix" values="0 0 0 0 0 0 0 0 0 0 0 0 0 0 0 0 0 0 0.25 0"/>
<feBlend mode="normal" in2="BackgroundImageFix" result="effect1_dropShadow_569_1408"/>
<feBlend mode="normal" in="SourceGraphic" in2="effect1_dropShadow_569_1408" result="shape"/>
</filter>
</defs>
</svg>
