<svg width="60" height="60" viewBox="0 0 60 60" fill="none" xmlns="http://www.w3.org/2000/svg">
<mask id="path-1-inside-1_651_1525" fill="white">
<path fill-rule="evenodd" clip-rule="evenodd" d="M6.17157 6.17173C5 7.34331 5 9.22893 5 13.0002V47.0002C5 50.7714 5 52.657 6.17157 53.8286C7.34315 55.0002 9.22876 55.0002 13 55.0002H47C50.7712 55.0002 52.6569 55.0002 53.8284 53.8286C55 52.657 55 50.7714 55 47.0002V13.0002C55 9.22892 55 7.34331 53.8284 6.17173C53.8026 6.14594 53.7765 6.12072 53.75 6.09605V42.5002H53.3137C51.6787 42.5002 50.8612 42.5002 50.1261 42.1957C49.391 41.8912 48.813 41.3131 47.6569 40.157L42.8284 35.3286C41.4951 33.9953 40.8284 33.3286 40 33.3286C39.1716 33.3286 38.5049 33.9953 37.1716 35.3286L32.0888 40.4113C31.1424 41.3577 30.6692 41.8309 30.1482 41.7306C29.6272 41.6302 29.3636 41.0151 28.8363 39.7849L24.8273 30.4306C23.7729 27.9702 23.2456 26.74 22.2036 26.5393C21.1615 26.3386 20.2151 27.285 18.3223 29.1778L8.75 38.7502V5.12891C7.58622 5.26895 6.78198 5.56133 6.17157 6.17173Z"/>
</mask>
<path fill-rule="evenodd" clip-rule="evenodd" d="M6.17157 6.17173C5 7.34331 5 9.22893 5 13.0002V47.0002C5 50.7714 5 52.657 6.17157 53.8286C7.34315 55.0002 9.22876 55.0002 13 55.0002H47C50.7712 55.0002 52.6569 55.0002 53.8284 53.8286C55 52.657 55 50.7714 55 47.0002V13.0002C55 9.22892 55 7.34331 53.8284 6.17173C53.8026 6.14594 53.7765 6.12072 53.75 6.09605V42.5002H53.3137C51.6787 42.5002 50.8612 42.5002 50.1261 42.1957C49.391 41.8912 48.813 41.3131 47.6569 40.157L42.8284 35.3286C41.4951 33.9953 40.8284 33.3286 40 33.3286C39.1716 33.3286 38.5049 33.9953 37.1716 35.3286L32.0888 40.4113C31.1424 41.3577 30.6692 41.8309 30.1482 41.7306C29.6272 41.6302 29.3636 41.0151 28.8363 39.7849L24.8273 30.4306C23.7729 27.9702 23.2456 26.74 22.2036 26.5393C21.1615 26.3386 20.2151 27.285 18.3223 29.1778L8.75 38.7502V5.12891C7.58622 5.26895 6.78198 5.56133 6.17157 6.17173Z" fill="url(#paint0_linear_651_1525)"/>
<path d="M6.17157 6.17173L4.75736 4.75752L4.75736 4.75752L6.17157 6.17173ZM53.8284 6.17173L52.4142 7.58593L52.4142 7.58595L53.8284 6.17173ZM53.75 6.09605L55.1128 4.63224L51.75 1.50144V6.09605H53.75ZM53.75 42.5002V44.5002H55.75V42.5002H53.75ZM37.1716 35.3286L38.5858 36.7428L38.5858 36.7428L37.1716 35.3286ZM32.0888 40.4113L30.6746 38.9971L32.0888 40.4113ZM30.1482 41.7306L29.77 43.6945H29.77L30.1482 41.7306ZM28.8363 39.7849L26.998 40.5728L28.8363 39.7849ZM24.8273 30.4306L26.6656 29.6428L24.8273 30.4306ZM18.3223 29.1778L19.7365 30.5921H19.7365L18.3223 29.1778ZM8.75 38.7502H6.75V43.5786L10.1642 40.1644L8.75 38.7502ZM8.75 5.12891H10.75V2.87381L8.51105 3.14323L8.75 5.12891ZM7 13.0002C7 11.058 7.00425 9.80258 7.12861 8.87757C7.24524 8.01009 7.43354 7.7382 7.58579 7.58595L4.75736 4.75752C3.73803 5.77684 3.34054 7.03355 3.16428 8.34458C2.99575 9.59808 3 11.1711 3 13.0002H7ZM7 47.0002V13.0002H3V47.0002H7ZM7.58579 52.4144C7.43354 52.2621 7.24524 51.9902 7.12861 51.1228C7.00425 50.1977 7 48.9423 7 47.0002H3C3 48.8292 2.99575 50.4022 3.16428 51.6557C3.34054 52.9668 3.73804 54.2235 4.75736 55.2428L7.58579 52.4144ZM13 53.0002C11.0578 53.0002 9.80242 52.9959 8.87741 52.8715C8.00993 52.7549 7.73804 52.5666 7.58579 52.4144L4.75736 55.2428C5.77668 56.2621 7.03338 56.6596 8.34442 56.8359C9.59792 57.0044 11.1709 57.0002 13 57.0002V53.0002ZM47 53.0002H13V57.0002H47V53.0002ZM52.4142 52.4144C52.262 52.5666 51.9901 52.7549 51.1226 52.8715C50.1976 52.9959 48.9422 53.0002 47 53.0002V57.0002C48.8291 57.0002 50.4021 57.0044 51.6556 56.8359C52.9666 56.6596 54.2233 56.2621 55.2426 55.2428L52.4142 52.4144ZM53 47.0002C53 48.9423 52.9958 50.1977 52.8714 51.1227C52.7548 51.9902 52.5665 52.2621 52.4142 52.4144L55.2426 55.2428C56.262 54.2235 56.6595 52.9668 56.8357 51.6557C57.0042 50.4022 57 48.8292 57 47.0002H53ZM53 13.0002V47.0002H57V13.0002H53ZM52.4142 7.58595C52.5665 7.7382 52.7548 8.01009 52.8714 8.87757C52.9958 9.80258 53 11.058 53 13.0002H57C57 11.1711 57.0042 9.59808 56.8357 8.34458C56.6595 7.03355 56.262 5.77684 55.2426 4.75752L52.4142 7.58595ZM52.3872 7.55986C52.3961 7.56819 52.4051 7.57687 52.4142 7.58593L55.2427 4.75754C55.2001 4.71502 55.1569 4.67325 55.1128 4.63224L52.3872 7.55986ZM51.75 6.09605V42.5002H55.75V6.09605H51.75ZM53.75 40.5002H53.3137V44.5002H53.75V40.5002ZM53.3137 40.5002C51.5155 40.5002 51.1736 40.4648 50.8915 40.3479L49.3608 44.0434C50.5488 44.5356 51.8419 44.5002 53.3137 44.5002V40.5002ZM50.8915 40.3479C50.6094 40.2311 50.3426 40.0143 49.0711 38.7428L46.2426 41.5712C47.2834 42.612 48.1727 43.5513 49.3608 44.0434L50.8915 40.3479ZM49.0711 38.7428L44.2426 33.9144L41.4142 36.7428L46.2426 41.5712L49.0711 38.7428ZM44.2426 33.9144C43.616 33.2877 43.0067 32.6724 42.438 32.2385C41.8232 31.7695 41.0273 31.3286 40 31.3286V35.3286C39.8011 35.3286 39.7527 35.221 40.0117 35.4186C40.3168 35.6514 40.7076 36.0362 41.4142 36.7428L44.2426 33.9144ZM40 31.3286C38.9727 31.3286 38.1768 31.7695 37.562 32.2385C36.9933 32.6724 36.384 33.2877 35.7574 33.9144L38.5858 36.7428C39.2924 36.0362 39.6832 35.6514 39.9883 35.4186C40.2473 35.221 40.1989 35.3286 40 35.3286V31.3286ZM35.7574 33.9144L30.6746 38.9971L33.5031 41.8255L38.5858 36.7428L35.7574 33.9144ZM30.6746 38.9971C30.4323 39.2394 30.2459 39.4256 30.0839 39.5792C29.9198 39.7346 29.8228 39.8161 29.7666 39.8578C29.708 39.9013 29.758 39.8527 29.8941 39.8064C30.0606 39.7498 30.2858 39.7203 30.5264 39.7667L29.77 43.6945C30.8421 43.901 31.6699 43.4267 32.1514 43.0692C32.5998 42.7362 33.0763 42.2523 33.5031 41.8255L30.6746 38.9971ZM30.5264 39.7667C30.767 39.813 30.9652 39.924 31.0987 40.0384C31.2079 40.1319 31.2363 40.1956 31.198 40.1334C31.1614 40.0739 31.1015 39.9622 31.0069 39.7569C30.9135 39.5541 30.8096 39.3121 30.6746 38.9971L26.998 40.5728C27.2358 41.1275 27.4985 41.7537 27.7912 42.2295C28.1054 42.7403 28.6979 43.488 29.77 43.6945L30.5264 39.7667ZM30.6746 38.9971L26.6656 29.6428L22.989 31.2184L26.998 40.5728L30.6746 38.9971ZM26.6656 29.6428C26.1643 28.473 25.7039 27.3854 25.2142 26.5895C24.703 25.7587 23.9144 24.832 22.5818 24.5754L21.8254 28.5032C21.5348 28.4473 21.5308 28.2361 21.8074 28.6856C22.1055 29.1701 22.4359 29.9278 22.989 31.2184L26.6656 29.6428ZM22.5818 24.5754C21.2492 24.3187 20.1728 24.8862 19.3896 25.4678C18.6395 26.0249 17.808 26.8637 16.9081 27.7636L19.7365 30.5921C20.7294 29.5992 21.3176 29.0184 21.7744 28.6792C22.1981 28.3646 22.116 28.5592 21.8254 28.5032L22.5818 24.5754ZM16.9081 27.7636L7.33579 37.3359L10.1642 40.1644L19.7365 30.5921L16.9081 27.7636ZM10.75 38.7502V5.12891H6.75V38.7502H10.75ZM7.58579 7.58595C7.74368 7.42806 8.03162 7.22978 8.98895 7.11458L8.51105 3.14323C7.14083 3.30812 5.82028 3.69459 4.75736 4.75752L7.58579 7.58595Z" fill="url(#paint1_linear_651_1525)" mask="url(#path-1-inside-1_651_1525)"/>
<path d="M7.5 13C7.5 11.0437 7.50531 9.82798 7.62415 8.94403C7.73142 8.14621 7.88982 7.98861 7.93693 7.94174C7.93777 7.94091 7.93857 7.94011 7.93934 7.93934C7.94011 7.93857 7.94091 7.93777 7.94174 7.93693C7.98861 7.88982 8.14621 7.73142 8.94403 7.62415C9.82798 7.50531 11.0437 7.5 13 7.5H47C48.9563 7.5 50.172 7.50531 51.056 7.62415C51.8538 7.73142 52.0114 7.88982 52.0583 7.93693L52.0607 7.93934L52.0631 7.94174C52.1102 7.98862 52.2686 8.14622 52.3758 8.94403C52.4947 9.82798 52.5 11.0437 52.5 13V47C52.5 48.9563 52.4947 50.172 52.3758 51.056C52.2686 51.8538 52.1102 52.0114 52.0631 52.0583L52.0607 52.0607L52.0583 52.0631C52.0114 52.1102 51.8538 52.2686 51.056 52.3758C50.172 52.4947 48.9563 52.5 47 52.5H13C11.0437 52.5 9.82798 52.4947 8.94403 52.3758C8.14622 52.2686 7.98862 52.1102 7.94174 52.0631L7.93934 52.0607L7.93693 52.0583C7.88982 52.0114 7.73142 51.8538 7.62415 51.056C7.50531 50.172 7.5 48.9563 7.5 47V13Z" fill="url(#paint2_linear_651_1525)" stroke="url(#paint3_linear_651_1525)" stroke-width="5"/>
<circle cx="37.5" cy="22.5" r="5" fill="url(#paint4_linear_651_1525)" stroke="url(#paint5_linear_651_1525)" stroke-width="2" stroke-linecap="round"/>
<defs>
<linearGradient id="paint0_linear_651_1525" x1="30" y1="5.12891" x2="30" y2="55.0002" gradientUnits="userSpaceOnUse">
<stop stop-color="#184A8B"/>
<stop offset="1" stop-color="#63C7FF"/>
</linearGradient>
<linearGradient id="paint1_linear_651_1525" x1="30" y1="5.12891" x2="30" y2="55.0002" gradientUnits="userSpaceOnUse">
<stop stop-color="#184A8B"/>
<stop offset="1" stop-color="#63C7FF"/>
</linearGradient>
<linearGradient id="paint2_linear_651_1525" x1="30" y1="5" x2="30" y2="55" gradientUnits="userSpaceOnUse">
<stop stop-color="#184A8B"/>
<stop offset="1" stop-color="#63C7FF"/>
</linearGradient>
<linearGradient id="paint3_linear_651_1525" x1="30" y1="5" x2="30" y2="55" gradientUnits="userSpaceOnUse">
<stop stop-color="#184A8B"/>
<stop offset="1" stop-color="#63C7FF"/>
</linearGradient>
<linearGradient id="paint4_linear_651_1525" x1="37.5" y1="17.5" x2="37.5" y2="27.5" gradientUnits="userSpaceOnUse">
<stop stop-color="#184A8B"/>
<stop offset="1" stop-color="#63C7FF"/>
</linearGradient>
<linearGradient id="paint5_linear_651_1525" x1="37.5" y1="17.5" x2="37.5" y2="27.5" gradientUnits="userSpaceOnUse">
<stop stop-color="#184A8B"/>
<stop offset="1" stop-color="#63C7FF"/>
</linearGradient>
</defs>
</svg>
