<svg width="26" height="28" viewBox="0 0 26 28" fill="none" xmlns="http://www.w3.org/2000/svg">
<g clip-path="url(#clip0_651_792)">
<path d="M24.2838 20.2621L23.9274 20.5676C23.3674 21.1276 22.4002 21.1276 21.8402 20.5676L12.6765 11.404L15.0692 9.01123L24.2329 18.1749C24.8438 18.7858 24.8438 19.7021 24.2838 20.2621Z" fill="#0087FE"/>
<path d="M5.34546 8.50195L10.5382 13.6438H10.4873L5.34546 8.50195Z" fill="#0087FE"/>
<path d="M15.8837 6.82183C15.7819 6.87274 10.6401 12.0655 10.4874 12.2182L6.771 8.50183L12.1674 3.10547L15.8837 6.82183Z" fill="#0087FE"/>
<path d="M15.8837 6.82183C15.7819 6.87274 10.6401 12.0655 10.4874 12.2182L6.771 8.50183L12.1674 3.10547L15.8837 6.82183Z" fill="#0087FE"/>
<path d="M18.0218 6.262L17.36 6.92382C15.4763 5.04019 14.1527 3.71655 12.1163 1.68019L12.0654 1.62928L12.7272 0.967459C13.3382 0.35655 14.3054 0.35655 14.9163 0.967459L18.0218 4.07291C18.6327 4.63291 18.6327 5.6511 18.0218 6.262Z" fill="#0087FE"/>
<path d="M10.5891 13.6949L9.92729 14.3568C9.31638 14.9677 8.34911 14.9677 7.7382 14.3568L4.63274 11.2513C4.02183 10.6404 4.02183 9.67312 4.63274 9.06221L5.29456 8.40039L10.5891 13.6949Z" fill="#0087FE"/>
<path d="M16.3419 23.4184V24.9457H0.763672V23.4184C0.763672 22.3493 1.62913 21.4839 2.69822 21.4839H14.4073C15.4764 21.4839 16.3419 22.3493 16.3419 23.4184Z" fill="#0087FE"/>
<path d="M16.3419 23.4184V24.9457H0.763672V23.4184C0.763672 22.3493 1.62913 21.4839 2.69822 21.4839H14.4073C15.4764 21.4839 16.3419 22.3493 16.3419 23.4184Z" fill="#0087FE"/>
<path d="M14 20.3131H3.10547V19.2949C3.10547 18.2258 3.46183 17.3604 4.53092 17.3604H12.0146C13.0837 17.3604 13.9491 18.2258 13.9491 19.2949V20.3131H14Z" fill="#0087FE"/>
</g>
<defs>
<clipPath id="clip0_651_792">
<rect width="25.4545" height="28" fill="white"/>
</clipPath>
</defs>
</svg>
