<svg width="26" height="22" viewBox="0 0 26 22" fill="none" xmlns="http://www.w3.org/2000/svg">
<path d="M23.2374 12.5033V13.4199C23.2374 13.6674 23.0099 13.8691 22.7065 13.8783H21.1249C20.5507 13.8783 20.0307 13.5208 19.9874 13.0441C19.9549 12.7599 20.0849 12.4941 20.3015 12.3108C20.4965 12.1366 20.7674 12.0449 21.0599 12.0449H22.6957C23.0099 12.0541 23.2374 12.2558 23.2374 12.5033Z" fill="white"/>
<path d="M19.4893 11.6326C18.9476 12.0818 18.6876 12.7509 18.9043 13.4476C19.186 14.3001 20.1718 14.8409 21.2118 14.8409H22.1543C22.7501 14.8409 23.2376 15.2534 23.2376 15.7576V15.9318C23.2376 17.8293 21.4068 19.3784 19.1643 19.3784H6.72763C4.48513 19.3784 2.6543 17.8293 2.6543 15.9318V9.76258C2.6543 8.63508 3.29346 7.63592 4.2793 7.01258C4.9618 6.57258 5.8068 6.31592 6.72763 6.31592H19.1643C21.4068 6.31592 23.2376 7.86508 23.2376 9.76258V10.1659C23.2376 10.6701 22.7501 11.0826 22.1543 11.0826H21.0493C20.4426 11.0826 19.8901 11.2843 19.4893 11.6326Z" fill="white"/>
<path d="M17.5497 4.4185C17.8422 4.666 17.593 5.051 17.1813 5.051L8.86132 5.04183C8.38466 5.04183 8.13549 4.54683 8.48216 4.26266L10.2372 2.7685C11.7213 1.52183 14.1263 1.52183 15.6105 2.7685L17.5063 4.391C17.5172 4.40016 17.5388 4.40933 17.5497 4.4185Z" fill="white"/>
</svg>
