<svg width="33" height="33" viewBox="0 0 33 33" fill="none" xmlns="http://www.w3.org/2000/svg">
<path d="M18.0472 1.54688C18.0472 0.689648 17.3575 0 16.5003 0C15.6431 0 14.9534 0.689648 14.9534 1.54688V6.70312C14.9534 7.56035 15.6431 8.25 16.5003 8.25C17.3575 8.25 18.0472 7.56035 18.0472 6.70312V1.54688ZM11.9757 14.4375H21.0249C21.4632 14.4375 21.8499 14.7146 21.9981 15.1207L23.2228 18.5625H9.77783L11.0089 15.1207C11.1571 14.7082 11.5438 14.4375 11.9821 14.4375H11.9757ZM7.12236 13.735L5.29834 18.8461C4.00283 19.3939 3.09404 20.6766 3.09404 22.1719V30.9375C3.09404 32.0783 4.01572 33 5.15654 33H6.18779C7.32861 33 8.25029 32.0783 8.25029 30.9375V28.875H24.7503V30.9375C24.7503 32.0783 25.672 33 26.8128 33H27.844C28.9849 33 29.9065 32.0783 29.9065 30.9375V22.1719C29.9065 20.6766 28.9978 19.3939 27.7022 18.8461L25.8782 13.735C25.1435 11.6854 23.2034 10.3125 21.0249 10.3125H11.9757C9.79717 10.3125 7.85068 11.6854 7.12236 13.735ZM8.25029 22.1719C8.66055 22.1719 9.054 22.3349 9.3441 22.6249C9.63419 22.915 9.79717 23.3085 9.79717 23.7188C9.79717 24.129 9.63419 24.5225 9.3441 24.8126C9.054 25.1026 8.66055 25.2656 8.25029 25.2656C7.84004 25.2656 7.44658 25.1026 7.15649 24.8126C6.86639 24.5225 6.70342 24.129 6.70342 23.7188C6.70342 23.3085 6.86639 22.915 7.15649 22.6249C7.44658 22.3349 7.84004 22.1719 8.25029 22.1719ZM23.2034 23.7188C23.2034 23.3085 23.3664 22.915 23.6565 22.6249C23.9466 22.3349 24.34 22.1719 24.7503 22.1719C25.1605 22.1719 25.554 22.3349 25.8441 22.6249C26.1342 22.915 26.2972 23.3085 26.2972 23.7188C26.2972 24.129 26.1342 24.5225 25.8441 24.8126C25.554 25.1026 25.1605 25.2656 24.7503 25.2656C24.34 25.2656 23.9466 25.1026 23.6565 24.8126C23.3664 24.5225 23.2034 24.129 23.2034 23.7188ZM2.51396 2.51367C1.90811 3.11953 1.90811 4.09922 2.51396 4.69863L5.60771 7.79238C6.21357 8.39824 7.19326 8.39824 7.79268 7.79238C8.39209 7.18652 8.39854 6.20684 7.79268 5.60742L4.70537 2.51367C4.09951 1.90781 3.11982 1.90781 2.52041 2.51367H2.51396ZM28.2952 2.51367L25.2015 5.60742C24.5956 6.21328 24.5956 7.19297 25.2015 7.79238C25.8073 8.3918 26.787 8.39824 27.3864 7.79238L30.4802 4.69863C31.086 4.09277 31.086 3.11309 30.4802 2.51367C29.8743 1.91426 28.8946 1.90781 28.2952 2.51367Z" fill="#E3BB47"/>
</svg>
