<svg width="21" height="22" viewBox="0 0 21 22" fill="none" xmlns="http://www.w3.org/2000/svg">
<path d="M20.7959 15.6084L14.8125 21.6025L11.9229 18.7021L12.8896 17.7354L14.8125 19.6475L19.8291 14.6416L20.7959 15.6084ZM10 6.875H5.875V5.5H10V6.875ZM10 9.625H5.875V8.25H10V9.625ZM5.875 11H10V12.375H5.875V11ZM4.5 6.875H3.125V5.5H4.5V6.875ZM4.5 9.625H3.125V8.25H4.5V9.625ZM3.125 11H4.5V12.375H3.125V11ZM11.375 6.875V1.375H1.75V20.625H11.375V22H0.375V0H12.3525L18.25 5.89746V13.75L16.875 15.125V6.875H11.375ZM12.75 5.5H15.8975L12.75 2.35254V5.5Z" fill="white"/>
</svg>
