<svg width="36" height="33" viewBox="0 0 36 33" fill="none" xmlns="http://www.w3.org/2000/svg">
<rect width="35.0625" height="33" rx="8" fill="#2C2B35"/>
<path fill-rule="evenodd" clip-rule="evenodd" d="M19.0867 25.8614C18.5483 25.7464 15.2678 25.7464 14.7294 25.8614C14.2692 25.9677 13.7715 26.215 13.7715 26.7573C13.7982 27.2746 14.1011 27.7312 14.5207 28.0208L14.5196 28.0219C15.0623 28.4449 15.6991 28.7139 16.3659 28.8104C16.7213 28.8592 17.083 28.8571 17.4512 28.8104C18.117 28.7139 18.7538 28.4449 19.2964 28.0219L19.2954 28.0208C19.7149 27.7312 20.0178 27.2746 20.0446 26.7573C20.0446 26.215 19.5469 25.9677 19.0867 25.8614Z" fill="white" fill-opacity="0.6"/>
<path fill-rule="evenodd" clip-rule="evenodd" d="M25.2905 17.695C24.5039 16.7764 24.1464 15.9803 24.1464 14.6278V14.1679C24.1464 12.4054 23.7407 11.2698 22.8588 10.1342C21.4995 8.37065 19.2112 7.30774 16.971 7.30774H16.8757C14.6827 7.30774 12.4661 8.32185 11.0832 10.0138C10.1531 11.1722 9.70037 12.3566 9.70037 14.1679V14.6278C9.70037 15.9803 9.36644 16.7764 8.55621 17.695C7.96005 18.3718 7.76953 19.2417 7.76953 20.1831C7.76953 21.1256 8.07885 22.0183 8.69963 22.7439C9.50986 23.6137 10.654 24.169 11.8228 24.2656C13.515 24.4586 15.2071 24.5313 16.9239 24.5313C18.6396 24.5313 20.3318 24.4098 22.025 24.2656C23.1927 24.169 24.3369 23.6137 25.1471 22.7439C25.7668 22.0183 26.0772 21.1256 26.0772 20.1831C26.0772 19.2417 25.8867 18.3718 25.2905 17.695Z" fill="white"/>
<circle cx="29.8462" cy="5.15385" r="2.15385" fill="#F15223"/>
</svg>
