<svg width="36" height="33" viewBox="0 0 36 33" fill="none" xmlns="http://www.w3.org/2000/svg">
<rect width="35.0625" height="33" rx="8" fill="#2C2B35"/>
<path d="M15.2738 17.8584C13.5121 16.5409 12.2556 15.0917 11.5692 14.2771C11.3567 14.0249 11.2873 13.84 11.2455 13.5149C11.1024 12.4014 11.0309 11.8447 11.3574 11.4848C11.6839 11.125 12.2612 11.125 13.4158 11.125H21.5843C22.7389 11.125 23.3162 11.125 23.6427 11.4841C23.9693 11.844 23.8977 12.4007 23.7546 13.5142C23.7121 13.8393 23.6427 14.0242 23.4309 14.2764C22.7439 15.0924 21.4851 16.5445 19.7193 17.8641C19.6376 17.9276 19.5701 18.0075 19.5211 18.0986C19.4721 18.1897 19.4426 18.2901 19.4345 18.3932C19.2596 20.3277 19.0981 21.3873 18.9975 21.9228C18.8353 22.7884 17.6091 23.309 16.9518 23.773C16.5608 24.0493 16.0862 23.7206 16.0359 23.2927C15.8479 21.6625 15.6887 20.0291 15.5585 18.3932C15.5512 18.2891 15.5221 18.1876 15.4731 18.0955C15.424 18.0034 15.3561 17.9226 15.2738 17.8584Z" stroke="white" stroke-width="1.0625" stroke-linecap="round" stroke-linejoin="round"/>
</svg>
