<svg width="57" height="57" viewBox="0 0 57 57" fill="none" xmlns="http://www.w3.org/2000/svg">
<path fill-rule="evenodd" clip-rule="evenodd" d="M28.5 56.625C32.1934 56.625 35.8507 55.8975 39.263 54.4841C42.6753 53.0707 45.7757 50.999 48.3874 48.3874C50.999 45.7757 53.0707 42.6753 54.4841 39.263C55.8975 35.8507 56.625 32.1934 56.625 28.5C56.625 24.8066 55.8975 21.1493 54.4841 17.737C53.0707 14.3247 50.999 11.2243 48.3874 8.61262C45.7757 6.00097 42.6753 3.9293 39.263 2.51589C35.8507 1.10247 32.1934 0.375 28.5 0.375C21.0408 0.375 13.8871 3.33816 8.61262 8.61262C3.33816 13.8871 0.375 21.0408 0.375 28.5C0.375 35.9592 3.33816 43.1129 8.61262 48.3874C13.8871 53.6618 21.0408 56.625 28.5 56.625ZM24.6969 15.9687L42.3344 25.7688C42.8213 26.0395 43.227 26.4354 43.5095 26.9157C43.7919 27.3959 43.9409 27.9429 43.9409 28.5C43.9409 29.0571 43.7919 29.6041 43.5095 30.0843C43.227 30.5646 42.8213 30.9605 42.3344 31.2312L24.6969 41.0312C24.1258 41.3487 23.4817 41.5114 22.8283 41.5033C22.175 41.4951 21.5351 41.3164 20.9721 40.9849C20.4091 40.6533 19.9425 40.1804 19.6185 39.613C19.2945 39.0456 19.1244 38.4034 19.125 37.75V19.25C19.1244 18.5966 19.2945 17.9544 19.6185 17.387C19.9425 16.8196 20.4091 16.3467 20.9721 16.0151C21.5351 15.6836 22.175 15.5049 22.8283 15.4967C23.4817 15.4886 24.1258 15.6513 24.6969 15.9687Z" fill="#E3BB47"/>
</svg>
