<svg width="22" height="22" viewBox="0 0 22 22" fill="none" xmlns="http://www.w3.org/2000/svg">
<path d="M11.0003 15.5832C10.5141 15.5832 10.0478 15.39 9.70396 15.0462C9.36015 14.7024 9.16699 14.2361 9.16699 13.7498C9.16699 12.7323 9.98283 11.9165 11.0003 11.9165C11.4866 11.9165 11.9529 12.1097 12.2967 12.4535C12.6405 12.7973 12.8337 13.2636 12.8337 13.7498C12.8337 14.2361 12.6405 14.7024 12.2967 15.0462C11.9529 15.39 11.4866 15.5832 11.0003 15.5832ZM16.5003 18.3332V9.1665H5.50033V18.3332H16.5003ZM16.5003 7.33317C16.9866 7.33317 17.4529 7.52633 17.7967 7.87014C18.1405 8.21396 18.3337 8.68027 18.3337 9.1665V18.3332C18.3337 18.8194 18.1405 19.2857 17.7967 19.6295C17.4529 19.9734 16.9866 20.1665 16.5003 20.1665H5.50033C5.0141 20.1665 4.54778 19.9734 4.20396 19.6295C3.86015 19.2857 3.66699 18.8194 3.66699 18.3332V9.1665C3.66699 8.149 4.48283 7.33317 5.50033 7.33317H6.41699V5.49984C6.41699 4.28426 6.89988 3.11847 7.75942 2.25893C8.61896 1.39939 9.78475 0.916504 11.0003 0.916504C11.6022 0.916504 12.1982 1.03506 12.7543 1.26539C13.3104 1.49572 13.8156 1.83333 14.2412 2.25893C14.6668 2.68453 15.0044 3.1898 15.2348 3.74587C15.4651 4.30195 15.5837 4.89795 15.5837 5.49984V7.33317H16.5003ZM11.0003 2.74984C10.271 2.74984 9.57151 3.03957 9.05578 3.55529C8.54006 4.07102 8.25033 4.77049 8.25033 5.49984V7.33317H13.7503V5.49984C13.7503 4.77049 13.4606 4.07102 12.9449 3.55529C12.4291 3.03957 11.7297 2.74984 11.0003 2.74984Z" fill="#E3BB47"/>
</svg>
