<svg width="22" height="22" viewBox="0 0 22 22" fill="none" xmlns="http://www.w3.org/2000/svg">
<path d="M11.9163 8.25016H10.083V6.41683H11.9163M11.9163 15.5835H10.083V10.0835H11.9163M10.9997 1.8335C9.79589 1.8335 8.60389 2.0706 7.49174 2.53127C6.37959 2.99194 5.36907 3.66715 4.51786 4.51835C2.79878 6.23743 1.83301 8.56901 1.83301 11.0002C1.83301 13.4313 2.79878 15.7629 4.51786 17.482C5.36907 18.3332 6.37959 19.0084 7.49174 19.4691C8.60389 19.9297 9.79589 20.1668 10.9997 20.1668C13.4308 20.1668 15.7624 19.2011 17.4815 17.482C19.2006 15.7629 20.1663 13.4313 20.1663 11.0002C20.1663 9.79638 19.9292 8.60438 19.4686 7.49223C19.0079 6.38008 18.3327 5.36955 17.4815 4.51835C16.6303 3.66715 15.6198 2.99194 14.5076 2.53127C13.3955 2.0706 12.2035 1.8335 10.9997 1.8335Z" fill="#E3BB47"/>
</svg>
