<svg width="23" height="23" viewBox="0 0 23 23" fill="none" xmlns="http://www.w3.org/2000/svg">
<path d="M10.5413 16.2915H12.458V10.5415H10.5413V16.2915ZM11.4997 8.62484C11.7712 8.62484 11.999 8.53284 12.183 8.34884C12.367 8.16484 12.4586 7.93739 12.458 7.6665C12.458 7.39498 12.366 7.16753 12.182 6.98417C11.998 6.80081 11.7706 6.70881 11.4997 6.70817C11.2281 6.70817 11.0007 6.80017 10.8173 6.98417C10.634 7.16817 10.542 7.39562 10.5413 7.6665C10.5413 7.93803 10.6333 8.1658 10.8173 8.3498C11.0013 8.5338 11.2288 8.62548 11.4997 8.62484ZM11.4997 21.0832C9.27954 20.5241 7.44656 19.2502 6.00076 17.2613C4.55495 15.2725 3.83237 13.0645 3.83301 10.6373V4.7915L11.4997 1.9165L19.1663 4.7915V10.6373C19.1663 13.0651 18.4438 15.2734 16.9986 17.2623C15.5534 19.2512 13.7205 20.5248 11.4997 21.0832ZM11.4997 19.0707C13.1608 18.5436 14.5344 17.4894 15.6205 15.9082C16.7066 14.3269 17.2497 12.57 17.2497 10.6373V6.10921L11.4997 3.95296L5.74967 6.10921V10.6373C5.74967 12.57 6.29273 14.3269 7.37884 15.9082C8.46495 17.4894 9.83856 18.5436 11.4997 19.0707Z" fill="#E3BB47"/>
</svg>
