<svg width="36" height="33" viewBox="0 0 36 33" fill="none" xmlns="http://www.w3.org/2000/svg">
<rect width="35.0625" height="33" rx="8" fill="#2C2B35"/>
<g clip-path="url(#clip0_919_1374)">
<path d="M17.3126 7.58337C18.576 7.58329 19.814 7.93892 20.8848 8.60956C21.9556 9.2802 22.816 10.2388 23.3674 11.3755C23.9189 12.5123 24.1391 13.7814 24.003 15.0375C23.8669 16.2936 23.3799 17.486 22.5977 18.4783L25.4889 21.3695C25.6331 21.5188 25.7129 21.7187 25.7111 21.9263C25.7093 22.1339 25.626 22.3324 25.4793 22.4792C25.3325 22.626 25.1339 22.7093 24.9264 22.7111C24.7188 22.7129 24.5188 22.6331 24.3695 22.4889L21.4783 19.5977C20.6356 20.2619 19.6462 20.7149 18.5927 20.9189C17.5393 21.123 16.4523 21.0721 15.4225 20.7706C14.3927 20.4692 13.4499 19.9258 12.6728 19.1858C11.8957 18.4459 11.3068 17.5308 10.9553 16.517C10.6038 15.5032 10.4998 14.42 10.6521 13.3578C10.8043 12.2956 11.2083 11.2853 11.8305 10.411C12.4526 9.53675 13.2748 8.82393 14.2284 8.33205C15.1821 7.84016 16.2395 7.58347 17.3126 7.58337ZM17.3126 9.16671C15.9478 9.16671 14.639 9.70886 13.6739 10.6739C12.7089 11.6389 12.1667 12.9478 12.1667 14.3125C12.1667 15.6773 12.7089 16.9862 13.6739 17.9512C14.639 18.9162 15.9478 19.4584 17.3126 19.4584C18.6773 19.4584 19.9862 18.9162 20.9512 17.9512C21.9163 16.9862 22.4584 15.6773 22.4584 14.3125C22.4584 12.9478 21.9163 11.6389 20.9512 10.6739C19.9862 9.70886 18.6773 9.16671 17.3126 9.16671ZM17.3126 9.95837C18.4674 9.95837 19.5749 10.4171 20.3914 11.2337C21.208 12.0502 21.6667 13.1577 21.6667 14.3125C21.6667 15.4673 21.208 16.5748 20.3914 17.3914C19.5749 18.208 18.4674 18.6667 17.3126 18.6667C16.1578 18.6667 15.0503 18.208 14.2337 17.3914C13.4172 16.5748 12.9584 15.4673 12.9584 14.3125C12.9584 13.1577 13.4172 12.0502 14.2337 11.2337C15.0503 10.4171 16.1578 9.95837 17.3126 9.95837Z" fill="white"/>
</g>
<defs>
<clipPath id="clip0_919_1374">
<rect width="19" height="19" fill="white" transform="translate(9 6)"/>
</clipPath>
</defs>
</svg>
