<svg width="17" height="16" viewBox="0 0 17 16" fill="none" xmlns="http://www.w3.org/2000/svg">
<path d="M7.40676 0.583496C8.71854 0.583411 10.0038 0.939039 11.1156 1.60968C12.2273 2.28032 13.1206 3.23888 13.6931 4.37565C14.2657 5.51243 14.4943 6.78149 14.353 8.03761C14.2117 9.29373 13.7061 10.4862 12.894 11.4784L15.8957 14.3696C16.0454 14.5189 16.1283 14.7189 16.1264 14.9264C16.1245 15.134 16.0381 15.3326 15.8857 15.4794C15.7333 15.6261 15.5272 15.7094 15.3117 15.7112C15.0961 15.713 14.8885 15.6332 14.7335 15.489L11.7318 12.5978C10.8568 13.262 9.82958 13.715 8.73585 13.9191C7.64212 14.1231 6.51358 14.0722 5.4444 13.7708C4.37522 13.4693 3.39639 12.9259 2.58959 12.1859C1.78278 11.446 1.1714 10.5309 0.806432 9.51712C0.441468 8.50331 0.333513 7.42012 0.491573 6.35795C0.649632 5.29577 1.06912 4.2854 1.71505 3.41113C2.36097 2.53687 3.2146 1.82406 4.20471 1.33217C5.19482 0.840284 6.2927 0.583588 7.40676 0.583496ZM7.40676 2.16683C5.98982 2.16683 4.63091 2.70898 3.62898 3.67401C2.62705 4.63904 2.06418 5.9479 2.06418 7.31266C2.06418 8.67742 2.62705 9.98629 3.62898 10.9513C4.63091 11.9163 5.98982 12.4585 7.40676 12.4585C8.8237 12.4585 10.1826 11.9163 11.1845 10.9513C12.1865 9.98629 12.7493 8.67742 12.7493 7.31266C12.7493 5.9479 12.1865 4.63904 11.1845 3.67401C10.1826 2.70898 8.8237 2.16683 7.40676 2.16683ZM7.40676 2.9585C8.60571 2.9585 9.75556 3.41724 10.6033 4.2338C11.4511 5.05037 11.9274 6.15787 11.9274 7.31266C11.9274 8.46746 11.4511 9.57496 10.6033 10.3915C9.75556 11.2081 8.60571 11.6668 7.40676 11.6668C6.20781 11.6668 5.05797 11.2081 4.21018 10.3915C3.36239 9.57496 2.88611 8.46746 2.88611 7.31266C2.88611 6.15787 3.36239 5.05037 4.21018 4.2338C5.05797 3.41724 6.20781 2.9585 7.40676 2.9585Z" fill="#E3BB47"/>
</svg>
