<svg width="24" height="22" viewBox="0 0 24 22" fill="none" xmlns="http://www.w3.org/2000/svg">
<path d="M9.74283 4.62648C10.5989 2.49224 11.027 1.42511 11.7224 1.27721C11.9053 1.23832 12.0943 1.23832 12.2771 1.27721C12.9726 1.42511 13.4006 2.49224 14.2567 4.62648C14.7436 5.84019 14.987 6.44705 15.4425 6.8598C15.5702 6.97557 15.7089 7.07868 15.8566 7.16768C16.383 7.48498 17.0402 7.54384 18.3546 7.66155C20.5796 7.86082 21.6921 7.96046 22.0319 8.59478C22.1022 8.72615 22.1501 8.86839 22.1734 9.01559C22.286 9.72629 21.4682 10.4704 19.8324 11.9585L19.3782 12.3718C18.6135 13.0675 18.2311 13.4154 18.0099 13.8495C17.8773 14.11 17.7883 14.3904 17.7466 14.6797C17.6772 15.162 17.7891 15.6666 18.0131 16.6759L18.0931 17.0365C18.4947 18.8466 18.6955 19.7516 18.4448 20.1965C18.2197 20.596 17.8049 20.8519 17.3468 20.8737C16.8368 20.8981 16.1181 20.3125 14.6808 19.1413C13.7339 18.3697 13.2604 17.9839 12.7348 17.8332C12.2545 17.6954 11.7451 17.6954 11.2648 17.8332C10.7391 17.9839 10.2657 18.3697 9.31873 19.1413C7.88143 20.3125 7.16278 20.8981 6.65275 20.8737C6.19462 20.8519 5.77989 20.596 5.55474 20.1965C5.30408 19.7516 5.50487 18.8466 5.90647 17.0365L5.98648 16.6759C6.21042 15.6666 6.32239 15.162 6.2529 14.6797C6.21122 14.3904 6.12227 14.11 5.9896 13.8495C5.76843 13.4154 5.38607 13.0675 4.62134 12.3718L4.16711 11.9585C2.5314 10.4704 1.71354 9.72629 1.82617 9.01559C1.8495 8.86839 1.89733 8.72615 1.9677 8.59478C2.30743 7.96046 3.41994 7.86082 5.64495 7.66155C6.95933 7.54384 7.61652 7.48498 8.14297 7.16768C8.29064 7.07868 8.42932 6.97557 8.55708 6.8598C9.01256 6.44705 9.25598 5.84019 9.74283 4.62648Z" fill="white" stroke="white" stroke-width="2"/>
</svg>
