<svg width="65" height="13" viewBox="0 0 65 13" fill="none" xmlns="http://www.w3.org/2000/svg">
<g clip-path="url(#clip0_282_719)">
<path d="M6.46465 9.3218L9.79397 11.3351L8.91046 7.54058L11.8519 4.98749L7.97847 4.65823L6.46465 1.07959L4.95083 4.65823L1.07739 4.98749L4.01883 7.54058L3.13532 11.3351L6.46465 9.3218Z" fill="#EDB310"/>
</g>
<g clip-path="url(#clip1_282_719)">
<path d="M19.3941 9.3218L22.7234 11.3351L21.8399 7.54058L24.7813 4.98749L20.9079 4.65823L19.3941 1.07959L17.8803 4.65823L14.0068 4.98749L16.9483 7.54058L16.0648 11.3351L19.3941 9.3218Z" fill="#EDB310"/>
</g>
<g clip-path="url(#clip2_282_719)">
<path d="M32.3235 9.3218L35.6529 11.3351L34.7693 7.54058L37.7108 4.98749L33.8374 4.65823L32.3235 1.07959L30.8097 4.65823L26.9363 4.98749L29.8777 7.54058L28.9942 11.3351L32.3235 9.3218Z" fill="#EDB310"/>
</g>
<g clip-path="url(#clip3_282_719)">
<path d="M45.253 9.3218L48.5823 11.3351L47.6988 7.54058L50.6402 4.98749L46.7668 4.65823L45.253 1.07959L43.7392 4.65823L39.8657 4.98749L42.8072 7.54058L41.9237 11.3351L45.253 9.3218Z" fill="#EDB310"/>
</g>
<g clip-path="url(#clip4_282_719)">
<path d="M63.5694 4.98749L59.696 4.65283L58.1822 1.07959L56.6684 4.65823L52.7949 4.98749L55.7364 7.54058L54.8529 11.3351L58.1822 9.3218L61.5115 11.3351L60.6334 7.54058L63.5694 4.98749ZM58.1822 8.31244V3.29263L59.1034 5.47328L61.463 5.67839L59.6744 7.23291L60.2132 9.5431L58.1822 8.31244Z" fill="#BBBBBB"/>
</g>
<defs>
<clipPath id="clip0_282_719">
<rect width="12.9294" height="12.9544" fill="white"/>
</clipPath>
<clipPath id="clip1_282_719">
<rect width="12.9294" height="12.9544" fill="white" transform="translate(12.9294)"/>
</clipPath>
<clipPath id="clip2_282_719">
<rect width="12.9294" height="12.9544" fill="white" transform="translate(25.8589)"/>
</clipPath>
<clipPath id="clip3_282_719">
<rect width="12.9294" height="12.9544" fill="white" transform="translate(38.7883)"/>
</clipPath>
<clipPath id="clip4_282_719">
<rect width="12.9294" height="12.9544" fill="white" transform="translate(51.7175)"/>
</clipPath>
</defs>
</svg>
