<svg width="75" height="17" viewBox="0 0 75 17" fill="none" xmlns="http://www.w3.org/2000/svg">
<path d="M23.5969 8.26999C23.8494 8.02399 23.9389 7.66299 23.8299 7.32749C23.7209 6.99199 23.4364 6.75249 23.0879 6.70149L20.8979 6.38299C20.8779 6.38005 20.8588 6.37228 20.8425 6.36034C20.8261 6.34841 20.8129 6.33267 20.8039 6.31449L19.8249 4.33049C19.6689 4.01449 19.3529 3.81799 19.0004 3.81799C18.6479 3.81799 18.3319 4.01499 18.1759 4.33049L17.1969 6.31449C17.188 6.33273 17.1748 6.34851 17.1584 6.36045C17.1421 6.37239 17.123 6.38013 17.1029 6.38299L14.9139 6.70149C14.5649 6.75249 14.2799 6.99199 14.1714 7.32749C14.0629 7.66299 14.1519 8.02399 14.4044 8.26999L15.9884 9.81399C16.0184 9.84299 16.0314 9.88449 16.0244 9.92499L15.6504 12.105C15.6207 12.2742 15.6392 12.4483 15.704 12.6074C15.7687 12.7665 15.877 12.9041 16.0164 13.0045C16.1549 13.106 16.3191 13.1664 16.4903 13.1788C16.6615 13.1913 16.8327 13.1553 16.9844 13.075L18.9424 12.0455C18.9604 12.0359 18.9805 12.0309 19.0009 12.0309C19.0213 12.0309 19.0414 12.0359 19.0594 12.0455L21.0174 13.075C21.1691 13.1551 21.3402 13.191 21.5113 13.1785C21.6823 13.166 21.8465 13.1057 21.9849 13.0045C22.1244 12.9042 22.2327 12.7666 22.2974 12.6074C22.3622 12.4483 22.3807 12.2742 22.3509 12.105L21.9769 9.92499C21.9735 9.90496 21.975 9.8844 21.9813 9.86507C21.9876 9.84575 21.9984 9.82822 22.0129 9.81399L23.5969 8.26999Z" fill="#EEEEEE"/>
<path d="M36.4799 8.26999C36.7534 8.02399 36.8504 7.66299 36.7323 7.32749C36.6142 6.99199 36.306 6.75249 35.9285 6.70149L33.556 6.38299C33.5343 6.38005 33.5137 6.37228 33.4959 6.36034C33.4782 6.34841 33.4638 6.33267 33.4542 6.31449L32.3936 4.33049C32.2246 4.01449 31.8822 3.81799 31.5004 3.81799C31.1185 3.81799 30.7762 4.01499 30.6072 4.33049L29.5466 6.31449C29.537 6.33273 29.5227 6.34851 29.5049 6.36045C29.4871 6.37239 29.4665 6.38013 29.4447 6.38299L27.0733 6.70149C26.6952 6.75249 26.3865 6.99199 26.2689 7.32749C26.1514 7.66299 26.2478 8.02399 26.5214 8.26999L28.2374 9.81399C28.2699 9.84299 28.2839 9.88449 28.2764 9.92499L27.8712 12.105C27.839 12.2742 27.8591 12.4483 27.9292 12.6074C27.9994 12.7665 28.1167 12.9041 28.2677 13.0045C28.4177 13.106 28.5956 13.1664 28.7811 13.1788C28.9665 13.1913 29.152 13.1553 29.3164 13.075L31.4375 12.0455C31.457 12.0359 31.4788 12.0309 31.5009 12.0309C31.523 12.0309 31.5448 12.0359 31.5643 12.0455L33.6854 13.075C33.8498 13.1551 34.0351 13.191 34.2205 13.1785C34.4058 13.166 34.5836 13.1057 34.7336 13.0045C34.8846 12.9042 35.002 12.7666 35.0721 12.6074C35.1423 12.4483 35.1623 12.2742 35.1301 12.105L34.7249 9.92499C34.7212 9.90496 34.7229 9.8844 34.7296 9.86507C34.7364 9.84575 34.7482 9.82822 34.7639 9.81399L36.4799 8.26999Z" fill="#FFD500"/>
<path d="M48.5969 8.26999C48.8494 8.02399 48.9389 7.66299 48.8299 7.32749C48.7209 6.99199 48.4364 6.75249 48.0879 6.70149L45.8979 6.38299C45.8779 6.38005 45.8588 6.37228 45.8425 6.36034C45.8261 6.34841 45.8129 6.33267 45.8039 6.31449L44.8249 4.33049C44.6689 4.01449 44.3529 3.81799 44.0004 3.81799C43.6479 3.81799 43.3319 4.01499 43.1759 4.33049L42.1969 6.31449C42.188 6.33273 42.1748 6.34851 42.1584 6.36045C42.1421 6.37239 42.123 6.38013 42.1029 6.38299L39.9139 6.70149C39.5649 6.75249 39.2799 6.99199 39.1714 7.32749C39.0629 7.66299 39.1519 8.02399 39.4044 8.26999L40.9884 9.81399C41.0184 9.84299 41.0314 9.88449 41.0244 9.92499L40.6504 12.105C40.6207 12.2742 40.6392 12.4483 40.704 12.6074C40.7687 12.7665 40.877 12.9041 41.0164 13.0045C41.1549 13.106 41.3191 13.1664 41.4903 13.1788C41.6615 13.1913 41.8327 13.1553 41.9844 13.075L43.9424 12.0455C43.9604 12.0359 43.9805 12.0309 44.0009 12.0309C44.0213 12.0309 44.0414 12.0359 44.0594 12.0455L46.0174 13.075C46.1691 13.1551 46.3402 13.191 46.5113 13.1785C46.6823 13.166 46.8465 13.1057 46.9849 13.0045C47.1244 12.9042 47.2327 12.7666 47.2974 12.6074C47.3622 12.4483 47.3807 12.2742 47.3509 12.105L46.9769 9.92499C46.9735 9.90496 46.975 9.8844 46.9813 9.86507C46.9876 9.84575 46.9984 9.82822 47.0129 9.81399L48.5969 8.26999Z" fill="#FFD500"/>
<path d="M61.4799 8.26999C61.7534 8.02399 61.8504 7.66299 61.7323 7.32749C61.6142 6.99199 61.306 6.75249 60.9285 6.70149L58.556 6.38299C58.5343 6.38005 58.5137 6.37228 58.4959 6.36034C58.4782 6.34841 58.4638 6.33267 58.4542 6.31449L57.3936 4.33049C57.2246 4.01449 56.8822 3.81799 56.5004 3.81799C56.1185 3.81799 55.7762 4.01499 55.6072 4.33049L54.5466 6.31449C54.537 6.33273 54.5227 6.34851 54.5049 6.36045C54.4871 6.37239 54.4665 6.38013 54.4447 6.38299L52.0733 6.70149C51.6952 6.75249 51.3865 6.99199 51.2689 7.32749C51.1514 7.66299 51.2478 8.02399 51.5214 8.26999L53.2374 9.81399C53.2699 9.84299 53.2839 9.88449 53.2764 9.92499L52.8712 12.105C52.839 12.2742 52.8591 12.4483 52.9292 12.6074C52.9994 12.7665 53.1167 12.9041 53.2677 13.0045C53.4177 13.106 53.5956 13.1664 53.7811 13.1788C53.9665 13.1913 54.152 13.1553 54.3164 13.075L56.4375 12.0455C56.457 12.0359 56.4788 12.0309 56.5009 12.0309C56.523 12.0309 56.5448 12.0359 56.5643 12.0455L58.6854 13.075C58.8498 13.1551 59.0351 13.191 59.2205 13.1785C59.4058 13.166 59.5836 13.1057 59.7336 13.0045C59.8846 12.9042 60.002 12.7666 60.0721 12.6074C60.1423 12.4483 60.1623 12.2742 60.1301 12.105L59.7249 9.92499C59.7212 9.90496 59.7229 9.8844 59.7296 9.86507C59.7364 9.84575 59.7482 9.82822 59.7639 9.81399L61.4799 8.26999Z" fill="#FFD500"/>
<path d="M73.5969 8.26999C73.8494 8.02399 73.9389 7.66299 73.8299 7.32749C73.7209 6.99199 73.4364 6.75249 73.0879 6.70149L70.8979 6.38299C70.8779 6.38005 70.8588 6.37228 70.8425 6.36034C70.8261 6.34841 70.8129 6.33267 70.8039 6.31449L69.8249 4.33049C69.6689 4.01449 69.3529 3.81799 69.0004 3.81799C68.6479 3.81799 68.3319 4.01499 68.1759 4.33049L67.1969 6.31449C67.188 6.33273 67.1748 6.34851 67.1584 6.36045C67.1421 6.37239 67.123 6.38013 67.1029 6.38299L64.9139 6.70149C64.5649 6.75249 64.2799 6.99199 64.1714 7.32749C64.0629 7.66299 64.1519 8.02399 64.4044 8.26999L65.9884 9.81399C66.0184 9.84299 66.0314 9.88449 66.0244 9.92499L65.6504 12.105C65.6207 12.2742 65.6392 12.4483 65.704 12.6074C65.7687 12.7665 65.877 12.9041 66.0164 13.0045C66.1549 13.106 66.3191 13.1664 66.4903 13.1788C66.6615 13.1913 66.8327 13.1553 66.9844 13.075L68.9424 12.0455C68.9604 12.0359 68.9805 12.0309 69.0009 12.0309C69.0213 12.0309 69.0414 12.0359 69.0594 12.0455L71.0174 13.075C71.1691 13.1551 71.3402 13.191 71.5113 13.1785C71.6823 13.166 71.8465 13.1057 71.9849 13.0045C72.1244 12.9042 72.2327 12.7666 72.2974 12.6074C72.3622 12.4483 72.3807 12.2742 72.3509 12.105L71.9769 9.92499C71.9735 9.90496 71.975 9.8844 71.9813 9.86507C71.9876 9.84575 71.9984 9.82822 72.0129 9.81399L73.5969 8.26999Z" fill="#FFD500"/>
</svg>
