<svg width="48" height="48" viewBox="0 0 48 48" fill="none" xmlns="http://www.w3.org/2000/svg">
<path d="M0 24C0 10.7452 10.7452 0 24 0C37.2548 0 48 10.7452 48 24C48 37.2548 37.2548 48 24 48C10.7452 48 0 37.2548 0 24Z" fill="#5197AF" fill-opacity="0.1"/>
<path d="M0.5 24C0.5 11.0213 11.0213 0.5 24 0.5C36.9787 0.5 47.5 11.0213 47.5 24C47.5 36.9787 36.9787 47.5 24 47.5C11.0213 47.5 0.5 36.9787 0.5 24Z" stroke="#5197AF" stroke-opacity="0.1"/>
<path d="M34.3293 25.3812C33.6297 25.3812 33.0113 25.832 32.7956 26.4976C31.6293 30.1004 28.2476 32.7144 24.2612 32.7144C19.3121 32.7144 15.2855 28.6874 15.2855 23.738C15.2855 19.7679 17.8779 16.397 21.4586 15.2175C22.15 14.9897 22.6184 14.3433 22.6184 13.6145C22.6184 13.0983 22.3714 12.613 21.9543 12.3095C21.5372 12.0055 20.9997 11.9197 20.5089 12.0777C15.5783 13.6656 12 18.287 12 23.7381C12 30.4995 17.5002 36 24.2611 36C29.6905 36 34.2963 32.4498 35.9014 27.5505C36.0665 27.0467 35.9799 26.4945 35.6687 26.0651C35.3583 25.6359 34.8602 25.3812 34.3293 25.3812Z" fill="#E3BB47"/>
<path d="M27.0191 15.2032C29.7446 16.0855 31.9014 18.2375 32.7902 20.9602C33.0115 21.638 33.6428 22.0957 34.3559 22.0957H34.3898C34.9046 22.0957 35.3885 21.8495 35.6916 21.4335C35.9941 21.0176 36.0806 20.4814 35.9227 19.9913C34.7204 16.2527 31.7694 13.2957 28.0339 12.0845C27.5389 11.9242 26.9959 12.0104 26.5749 12.3163C26.1537 12.6227 25.9043 13.1121 25.9043 13.6329V13.6687C25.9041 14.3673 26.3548 14.9878 27.0191 15.2032Z" fill="#E3BB47"/>
</svg>
