<svg width="48" height="48" viewBox="0 0 48 48" fill="none" xmlns="http://www.w3.org/2000/svg">
<path d="M0 24C0 10.7452 10.7452 0 24 0C37.2548 0 48 10.7452 48 24C48 37.2548 37.2548 48 24 48C10.7452 48 0 37.2548 0 24Z" fill="#5197AF" fill-opacity="0.1"/>
<path d="M0.5 24C0.5 11.0213 11.0213 0.5 24 0.5C36.9787 0.5 47.5 11.0213 47.5 24C47.5 36.9787 36.9787 47.5 24 47.5C11.0213 47.5 0.5 36.9787 0.5 24Z" stroke="#5197AF" stroke-opacity="0.1"/>
<path d="M33.3435 26.8914L32.1257 27.5945L31.6289 27.8813C31.6458 28.0892 31.6544 28.2978 31.6544 28.5065C31.6544 28.7151 31.6458 28.9238 31.6289 29.1316L32.1257 29.4184L33.3435 30.1215L32.6404 31.3393L31.8468 32.7138H35.999V23.9248C35.1286 24.7968 33.9259 25.3371 32.5993 25.3371H32.4461L32.6404 25.6736L33.3435 26.8914Z" fill="#4CA63D"/>
<path d="M16.1522 32.7138L15.3586 31.3393L14.6555 30.1215L15.8734 29.4184L16.3701 29.1315C16.3532 28.9237 16.3447 28.715 16.3447 28.5064C16.3447 28.2978 16.3532 28.0891 16.3701 27.8812L15.8734 27.5945L14.6555 26.8914L15.3586 25.6735L15.5529 25.3371H15.3997C14.0731 25.3371 12.8704 24.7968 12 23.9248V32.7138L16.1522 32.7138Z" fill="#4CA63D"/>
<path d="M19.7811 14.9881H12V20.5312C12 22.4058 13.5251 23.9308 15.3997 23.9308H16.3647L17.2258 22.4395L17.9289 21.2216L19.1467 21.9247L19.6442 22.2119C19.9874 21.9745 20.35 21.7648 20.7263 21.5861V21.0128V19.6065H22.1325H25.8668H27.273V21.0128V21.5861C27.6493 21.7648 28.0119 21.9745 28.3551 22.2119L28.8526 21.9247L30.0704 21.2216L30.7735 22.4395L31.6346 23.9308H32.5996C34.4742 23.9308 35.9993 22.4058 35.9993 20.5312H35.9993V14.9881H28.2183V13.4062H29.6245V12H18.3748V13.4062H19.781V14.9881L19.7811 14.9881ZM21.1873 13.4062H26.8121V14.9881H21.1873L21.1873 13.4062Z" fill="#4CA63D"/>
<circle cx="27.9481" cy="27.7254" r="2.55883" transform="rotate(-67.4859 27.9481 27.7254)" fill="#4CA63D"/>
<path d="M28.2299 33.1048L29.5555 33.8701L31.4227 30.6361L30.0982 29.8714C30.1962 29.432 30.2482 28.9752 30.2482 28.5063C30.2482 28.0374 30.1962 27.5806 30.0982 27.1412L31.4227 26.3765L29.5555 23.1425L28.2299 23.9078C27.5605 23.2916 26.7564 22.8196 25.8666 22.5413V21.0127H22.1323V22.5413C21.2424 22.8195 20.4383 23.2916 19.7689 23.9078L18.4434 23.1425L16.5762 26.3765L17.9006 27.1412C17.8027 27.5806 17.7506 28.0373 17.7506 28.5063C17.7506 28.9753 17.8026 29.432 17.9006 29.8714L16.5762 30.6361L18.4433 33.8701L19.7689 33.1048C20.4383 33.721 21.2424 34.193 22.1322 34.4712V35.9999H25.8666V34.4712C26.7564 34.193 27.5605 33.721 28.2299 33.1048ZM23.9994 24.5418C26.1854 24.5418 27.9638 26.3203 27.9638 28.5063C27.9638 30.6923 26.1854 32.4707 23.9994 32.4707C21.8134 32.4707 20.0349 30.6923 20.0349 28.5063C20.0349 26.3203 21.8134 24.5418 23.9994 24.5418Z" fill="#4CA63D"/>
</svg>
