<svg width="48" height="48" viewBox="0 0 48 48" fill="none" xmlns="http://www.w3.org/2000/svg">
<path d="M0 24C0 10.7452 10.7452 0 24 0C37.2548 0 48 10.7452 48 24C48 37.2548 37.2548 48 24 48C10.7452 48 0 37.2548 0 24Z" fill="#5197AF" fill-opacity="0.1"/>
<path d="M0.5 24C0.5 11.0213 11.0213 0.5 24 0.5C36.9787 0.5 47.5 11.0213 47.5 24C47.5 36.9787 36.9787 47.5 24 47.5C11.0213 47.5 0.5 36.9787 0.5 24Z" stroke="#5197AF" stroke-opacity="0.1"/>
<path d="M8.875 24.5H23.5V26.9375H8.875V24.5ZM6.4375 18.4062H18.625V20.8438H6.4375V18.4062Z" fill="#E3BB47"/>
<path d="M40.4635 25.2386L36.8072 16.7073C36.7133 16.4881 36.5571 16.3013 36.358 16.17C36.1589 16.0388 35.9257 15.9688 35.6872 15.9687H32.031V13.5312C32.031 13.208 31.9026 12.898 31.674 12.6695C31.4454 12.4409 31.1354 12.3125 30.8122 12.3125H11.3122V14.75H29.5935V30.0526C29.0384 30.3755 28.5527 30.8049 28.1641 31.316C27.7755 31.8272 27.4917 32.4101 27.329 33.0312H19.6704C19.3738 31.8824 18.6683 30.8811 17.6863 30.2152C16.7042 29.5493 15.513 29.2643 14.3359 29.4139C13.1588 29.5634 12.0767 30.137 11.2923 31.0273C10.5079 31.9176 10.0752 33.0635 10.0752 34.25C10.0752 35.4365 10.5079 36.5824 11.2923 37.4727C12.0767 38.363 13.1588 38.9366 14.3359 39.0861C15.513 39.2357 16.7042 38.9507 17.6863 38.2848C18.6683 37.6189 19.3738 36.6176 19.6704 35.4687H27.329C27.5941 36.5147 28.2005 37.4424 29.0521 38.1051C29.9037 38.7678 30.9519 39.1276 32.031 39.1276C33.11 39.1276 34.1583 38.7678 35.0099 38.1051C35.8615 37.4424 36.4678 36.5147 36.7329 35.4687H39.3435C39.6667 35.4687 39.9767 35.3403 40.2052 35.1118C40.4338 34.8832 40.5622 34.5732 40.5622 34.25V25.7187C40.5622 25.5537 40.5286 25.3903 40.4635 25.2386ZM14.9685 36.6875C14.4864 36.6875 14.0151 36.5445 13.6143 36.2767C13.2134 36.0089 12.901 35.6282 12.7165 35.1828C12.532 34.7374 12.4837 34.2473 12.5778 33.7745C12.6718 33.3016 12.904 32.8673 13.2449 32.5264C13.5858 32.1855 14.0201 31.9534 14.4929 31.8593C14.9658 31.7653 15.4559 31.8136 15.9012 31.998C16.3466 32.1825 16.7273 32.4949 16.9952 32.8958C17.263 33.2966 17.406 33.7679 17.406 34.25C17.406 34.8965 17.1491 35.5165 16.692 35.9736C16.2349 36.4307 15.6149 36.6875 14.9685 36.6875ZM32.031 18.4062H34.8828L37.4958 24.5H32.031V18.4062ZM32.031 36.6875C31.5489 36.6875 31.0776 36.5445 30.6768 36.2767C30.2759 36.0089 29.9635 35.6282 29.779 35.1828C29.5945 34.7374 29.5462 34.2473 29.6403 33.7745C29.7343 33.3016 29.9665 32.8673 30.3074 32.5264C30.6483 32.1855 31.0826 31.9534 31.5554 31.8593C32.0283 31.7653 32.5184 31.8136 32.9637 31.998C33.4091 32.1825 33.7898 32.4949 34.0577 32.8958C34.3255 33.2966 34.4685 33.7679 34.4685 34.25C34.4685 34.8965 34.2116 35.5165 33.7545 35.9736C33.2974 36.4307 32.6774 36.6875 32.031 36.6875ZM38.1247 33.0312H36.7329C36.4644 31.9873 35.8571 31.062 35.0062 30.4003C34.1553 29.7386 33.1089 29.378 32.031 29.375V26.9375H38.1247V33.0312Z" fill="#E3BB47"/>
</svg>
