<svg width="48" height="48" viewBox="0 0 48 48" fill="none" xmlns="http://www.w3.org/2000/svg">
<path d="M0 24C0 10.7452 10.7452 0 24 0C37.2548 0 48 10.7452 48 24C48 37.2548 37.2548 48 24 48C10.7452 48 0 37.2548 0 24Z" fill="#5197AF" fill-opacity="0.1"/>
<path d="M0.5 24C0.5 11.0213 11.0213 0.5 24 0.5C36.9787 0.5 47.5 11.0213 47.5 24C47.5 36.9787 36.9787 47.5 24 47.5C11.0213 47.5 0.5 36.9787 0.5 24Z" stroke="#5197AF" stroke-opacity="0.1"/>
<g clip-path="url(#clip0_961_1384)">
<path d="M21.8112 11.0575C22.297 10.9853 22.7918 11.1066 23.1891 11.3953C23.5864 11.684 23.8546 12.1171 23.9359 12.6014C24.0173 13.0858 23.9054 13.5827 23.6243 13.9854C23.3431 14.3881 22.9152 14.6644 22.4325 14.755C20.2489 15.1258 18.2671 16.2575 16.838 17.9497C15.409 19.6418 14.625 21.7851 14.625 24C14.625 26.4864 15.6127 28.871 17.3709 30.6291C19.129 32.3873 21.5136 33.375 24 33.375V37.125C16.7513 37.125 10.875 31.25 10.875 24C10.875 17.5687 15.5325 12.1125 21.8112 11.0575Z" fill="url(#paint0_linear_961_1384)"/>
<path d="M30.115 14.3725C30.2794 14.1891 30.4784 14.0398 30.7005 13.9333C30.9227 13.8268 31.1636 13.7651 31.4096 13.7518C31.6556 13.7384 31.9018 13.7737 32.1341 13.8555C32.3665 13.9374 32.5804 14.0642 32.7637 14.2288C34.1377 15.4586 35.2365 16.9647 35.9881 18.6486C36.7396 20.3324 37.1271 22.156 37.125 24C37.125 31.25 31.2487 37.125 24 37.125V33.375C25.8977 33.375 27.7507 32.7992 29.3141 31.7235C30.8775 30.6478 32.0777 29.123 32.7559 27.3507C33.4342 25.5783 33.5586 23.6419 33.1127 21.7973C32.6668 19.9527 31.6716 18.2869 30.2587 17.02C29.8886 16.688 29.6656 16.2225 29.6386 15.726C29.6117 15.2295 29.783 14.7427 30.115 14.3725Z" fill="url(#paint1_linear_961_1384)"/>
</g>
<defs>
<linearGradient id="paint0_linear_961_1384" x1="667.125" y1="148.546" x2="667.125" y2="2405.72" gradientUnits="userSpaceOnUse">
<stop stop-color="#3B3B3B"/>
<stop offset="1" stop-color="#B40E7B" stop-opacity="0.55"/>
</linearGradient>
<linearGradient id="paint1_linear_961_1384" x1="680.25" y1="369.999" x2="680.25" y2="2050.97" gradientUnits="userSpaceOnUse">
<stop stop-color="#E3BB47"/>
<stop offset="1" stop-color="#E3BB47"/>
</linearGradient>
<clipPath id="clip0_961_1384">
<rect width="30" height="30" fill="white" transform="translate(9 9)"/>
</clipPath>
</defs>
</svg>
