<svg width="48" height="48" viewBox="0 0 48 48" fill="none" xmlns="http://www.w3.org/2000/svg">
<path d="M0 24C0 10.7452 10.7452 0 24 0C37.2548 0 48 10.7452 48 24C48 37.2548 37.2548 48 24 48C10.7452 48 0 37.2548 0 24Z" fill="#5197AF" fill-opacity="0.1"/>
<path d="M0.5 24C0.5 11.0213 11.0213 0.5 24 0.5C36.9787 0.5 47.5 11.0213 47.5 24C47.5 36.9787 36.9787 47.5 24 47.5C11.0213 47.5 0.5 36.9787 0.5 24Z" stroke="#5197AF" stroke-opacity="0.1"/>
<path d="M26.1871 33.5C26.1871 33.5 27.3121 33.5 28.4371 35.75C28.4371 35.75 32.0112 30.125 35.1871 29M18.8746 29H23.3746M18.8746 23.375H27.8746M18.3121 14.9375C16.5616 14.9904 15.5187 15.185 14.7965 15.9072C13.8076 16.8972 13.8076 18.4891 13.8076 21.674V28.9932C13.8076 32.1792 13.8076 33.7711 14.7965 34.7611C15.7842 35.75 17.3761 35.75 20.5576 35.75H23.3701M28.4281 14.9375C30.1786 14.9904 31.2226 15.185 31.9437 15.9072C32.9337 16.8972 32.9337 18.4891 32.9337 21.674V26.1875" stroke="#4CA63D" stroke-width="1.0625" stroke-linecap="round" stroke-linejoin="round"/>
<path d="M18.3076 15.2187C18.3076 14.132 19.1896 13.25 20.2764 13.25H26.4639C26.986 13.25 27.4868 13.4574 27.856 13.8266C28.2252 14.1958 28.4326 14.6966 28.4326 15.2187C28.4326 15.7409 28.2252 16.2417 27.856 16.6109C27.4868 16.9801 26.986 17.1875 26.4639 17.1875H20.2764C19.7542 17.1875 19.2535 16.9801 18.8843 16.6109C18.515 16.2417 18.3076 15.7409 18.3076 15.2187Z" stroke="#4CA63D" stroke-width="1.0625" stroke-linecap="round" stroke-linejoin="round"/>
</svg>
