<svg width="48" height="48" viewBox="0 0 48 48" fill="none" xmlns="http://www.w3.org/2000/svg">
<path d="M0 24C0 10.7452 10.7452 0 24 0C37.2548 0 48 10.7452 48 24C48 37.2548 37.2548 48 24 48C10.7452 48 0 37.2548 0 24Z" fill="#5197AF" fill-opacity="0.1"/>
<path d="M0.5 24C0.5 11.0213 11.0213 0.5 24 0.5C36.9787 0.5 47.5 11.0213 47.5 24C47.5 36.9787 36.9787 47.5 24 47.5C11.0213 47.5 0.5 36.9787 0.5 24Z" stroke="#5197AF" stroke-opacity="0.1"/>
<path d="M24 14C18.486 14 14 18.486 14 24C14 29.514 18.486 34 24 34C29.514 34 34 29.514 34 24C34 18.486 29.514 14 24 14ZM16 24C16 22.154 16.634 20.458 17.688 19.103L28.897 30.312C27.499 31.4058 25.7751 32.0001 24 32C19.589 32 16 28.411 16 24ZM30.312 28.897L19.103 17.688C20.501 16.5943 22.225 16.0001 24 16C28.411 16 32 19.589 32 24C31.9995 25.775 31.4053 27.4987 30.312 28.897Z" fill="#CF000A"/>
</svg>
