<svg width="13" height="15" viewBox="0 0 13 15" fill="none" xmlns="http://www.w3.org/2000/svg">
<g clip-path="url(#clip0_483_1000)">
<path d="M6.91593 14.0811C5.88913 14.0811 4.8854 13.7145 4.03165 13.0277C3.1779 12.341 2.51249 11.3649 2.11955 10.2228C1.72661 9.08079 1.6238 7.82412 1.82412 6.61174C2.02444 5.39936 2.51889 4.28572 3.24494 3.41164C3.97099 2.53756 4.89604 1.94231 5.9031 1.70115C6.91017 1.45999 7.95402 1.58376 8.90265 2.05681C9.85129 2.52986 10.6621 3.33094 11.2326 4.35874C11.803 5.38655 12.1075 6.59492 12.1075 7.83106C12.1075 9.48866 11.5605 11.0784 10.5869 12.2505C9.61331 13.4226 8.29282 14.0811 6.91593 14.0811ZM6.91593 2.47391C6.03582 2.47391 5.17547 2.78811 4.44369 3.37676C3.71191 3.96541 3.14155 4.80208 2.80475 5.78097C2.46795 6.75986 2.37982 7.837 2.55152 8.87618C2.72322 9.91537 3.14704 10.8699 3.76937 11.6191C4.3917 12.3683 5.1846 12.8786 6.04779 13.0853C6.91099 13.292 7.80572 13.1859 8.61883 12.7804C9.43195 12.3749 10.1269 11.6883 10.6159 10.8073C11.1049 9.92635 11.3658 8.8906 11.3658 7.83106C11.3658 6.41025 10.897 5.04764 10.0625 4.04299C9.22797 3.03833 8.09612 2.47391 6.91593 2.47391Z" fill="#A8A8A8"/>
<path d="M8.61808 10.5097L6.54517 8.01413V3.81323H7.28682V7.64359L9.14095 9.8802L8.61808 10.5097Z" fill="#A8A8A8"/>
</g>
<defs>
<clipPath id="clip0_483_1000">
<rect width="11.8664" height="14.2857" fill="white" transform="translate(0.982666 0.688232)"/>
</clipPath>
</defs>
</svg>
