<svg width="60" height="60" viewBox="0 0 60 60" fill="none" xmlns="http://www.w3.org/2000/svg">
<path fill-rule="evenodd" clip-rule="evenodd" d="M31.5 20.5V5H25C17.9289 5 14.3934 5 12.1967 7.1967C10 9.3934 10 12.9289 10 20V40C10 47.0711 10 50.6066 12.1967 52.8033C14.3934 55 17.9289 55 25 55H35C42.0711 55 45.6066 55 47.8033 52.8033C50 50.6066 50 47.0711 50 40V23.5H34.5L34.4456 23.5C34.0215 23.5001 33.6094 23.5002 33.2695 23.4545C32.8863 23.403 32.449 23.2774 32.0858 22.9142C31.7226 22.551 31.597 22.1137 31.5455 21.7305C31.4998 21.3906 31.4999 20.9785 31.5 20.5545V20.5544L31.5 20.5ZM33.5 20.5V5C35.4495 5.00021 36.445 5.00893 37.3424 5.3806C38.2612 5.7612 38.9838 6.48378 40.4289 7.92893L47.0711 14.5711L47.0711 14.5711C48.5162 16.0162 49.2388 16.7388 49.6194 17.6577C49.9911 18.555 49.9998 19.5505 50 21.5H34.5C34.0003 21.5 33.7262 21.4979 33.536 21.4723L33.5287 21.4713L33.5277 21.464C33.5021 21.2738 33.5 20.9997 33.5 20.5ZM27.0942 30.3096L35.8354 34.6053C38.0549 35.696 38.0549 39.304 35.8354 40.3947L27.0942 44.6904C24.9193 45.7591 22.5 43.9299 22.5 41.2167V33.7833C22.5 31.0701 24.9193 29.2409 27.0942 30.3096Z" fill="url(#paint0_linear_651_1531)"/>
<path d="M31.5 5H32.5V4H31.5V5ZM31.5 20.5L32.5 20.5001V20.5H31.5ZM47.8033 52.8033L48.5104 53.5104L47.8033 52.8033ZM50 23.5H51V22.5H50V23.5ZM34.5 23.5V22.5H34.4999L34.5 23.5ZM34.4456 23.5L34.4455 22.5H34.4454L34.4456 23.5ZM33.2695 23.4545L33.1362 24.4456H33.1362L33.2695 23.4545ZM32.0858 22.9142L32.7929 22.2071L32.7929 22.2071L32.0858 22.9142ZM31.5455 21.7305L30.5544 21.8638V21.8638L31.5455 21.7305ZM31.5 20.5545L32.5 20.5547V20.5545H31.5ZM31.5 20.5544L30.5 20.5543V20.5544H31.5ZM33.5 5L33.5001 4L32.5 3.9999V5H33.5ZM37.3424 5.3806L37.725 4.45672L37.725 4.45672L37.3424 5.3806ZM40.4289 7.92893L39.7218 8.63604V8.63604L40.4289 7.92893ZM47.0711 14.5711L47.7782 13.864L47.0711 14.5711ZM47.0711 14.5711L47.7782 13.864L47.0711 14.5711ZM49.6194 17.6577L50.5433 17.275V17.275L49.6194 17.6577ZM50 21.5V22.5H51.0001L51 21.4999L50 21.5ZM33.536 21.4723L33.4 22.463L33.4027 22.4634L33.536 21.4723ZM33.5287 21.4713L32.538 21.6073L32.6411 22.3589L33.3927 22.462L33.5287 21.4713ZM33.5277 21.464L32.5366 21.5973L32.537 21.6L33.5277 21.464ZM35.8354 34.6053L36.2764 33.7078L35.8354 34.6053ZM27.0942 30.3096L26.6531 31.2071L27.0942 30.3096ZM35.8354 40.3947L35.3943 39.4972L35.8354 40.3947ZM27.0942 44.6904L27.5352 45.5878L27.0942 44.6904ZM30.5 5V20.5H32.5V5H30.5ZM25 6H31.5V4H25V6ZM12.9038 7.90381C13.7854 7.02223 14.9722 6.52535 16.9037 6.26567C18.8639 6.00212 21.4362 6 25 6V4C21.4927 4 18.7617 3.99788 16.6372 4.2835C14.484 4.573 12.8047 5.17447 11.4896 6.48959L12.9038 7.90381ZM11 20C11 16.4362 11.0021 13.8639 11.2657 11.9037C11.5253 9.97224 12.0222 8.78539 12.9038 7.90381L11.4896 6.48959C10.1745 7.80471 9.573 9.48397 9.2835 11.6372C8.99788 13.7617 9 16.4927 9 20H11ZM11 40V20H9V40H11ZM12.9038 52.0962C12.0222 51.2146 11.5253 50.0278 11.2657 48.0963C11.0021 46.1361 11 43.5638 11 40H9C9 43.5073 8.99788 46.2383 9.2835 48.3628C9.573 50.516 10.1745 52.1953 11.4896 53.5104L12.9038 52.0962ZM25 54C21.4362 54 18.8639 53.9979 16.9037 53.7343C14.9722 53.4747 13.7854 52.9778 12.9038 52.0962L11.4896 53.5104C12.8047 54.8255 14.484 55.427 16.6372 55.7165C18.7617 56.0021 21.4927 56 25 56V54ZM35 54H25V56H35V54ZM47.0962 52.0962C46.2146 52.9778 45.0278 53.4747 43.0963 53.7343C41.1361 53.9979 38.5638 54 35 54V56C38.5073 56 41.2383 56.0021 43.3628 55.7165C45.516 55.427 47.1953 54.8255 48.5104 53.5104L47.0962 52.0962ZM49 40C49 43.5638 48.9979 46.1361 48.7343 48.0963C48.4747 50.0278 47.9778 51.2146 47.0962 52.0962L48.5104 53.5104C49.8255 52.1953 50.427 50.516 50.7165 48.3628C51.0021 46.2383 51 43.5073 51 40H49ZM49 23.5V40H51V23.5H49ZM34.5 24.5H50V22.5H34.5V24.5ZM34.4458 24.5L34.5001 24.5L34.4999 22.5L34.4455 22.5L34.4458 24.5ZM33.1362 24.4456C33.5565 24.5021 34.0425 24.5001 34.4458 24.5L34.4454 22.5C34.0006 22.5001 33.6623 22.4983 33.4027 22.4634L33.1362 24.4456ZM31.3787 23.6213C31.9591 24.2018 32.6431 24.3793 33.1362 24.4456L33.4027 22.4634C33.1294 22.4266 32.9389 22.3531 32.7929 22.2071L31.3787 23.6213ZM30.5544 21.8638C30.6207 22.3569 30.7982 23.0409 31.3787 23.6213L32.7929 22.2071C32.6469 22.0611 32.5734 21.8706 32.5366 21.5973L30.5544 21.8638ZM30.5 20.5543C30.4999 20.9576 30.4979 21.4435 30.5544 21.8638L32.5366 21.5973C32.5017 21.3377 32.4999 20.9995 32.5 20.5547L30.5 20.5543ZM30.5 20.5544V20.5545H32.5V20.5544H30.5ZM30.5 20.4999L30.5 20.5543L32.5 20.5545L32.5 20.5001L30.5 20.4999ZM32.5 5V20.5H34.5V5H32.5ZM37.725 4.45672C36.6035 3.99215 35.3774 4.0002 33.5001 4L33.4999 6C35.5216 6.00022 36.2866 6.0257 36.9597 6.30448L37.725 4.45672ZM41.136 7.22183C39.7486 5.83437 38.8704 4.93115 37.725 4.45672L36.9597 6.30448C37.652 6.59126 38.219 7.13319 39.7218 8.63604L41.136 7.22183ZM47.7782 13.864L41.136 7.22183L39.7218 8.63604L46.364 15.2782L47.7782 13.864ZM47.7782 13.864L47.7782 13.864L46.364 15.2782L46.364 15.2782L47.7782 13.864ZM50.5433 17.275C50.0689 16.1296 49.1656 15.2514 47.7782 13.864L46.364 15.2782C47.8668 16.781 48.4087 17.348 48.6955 18.0403L50.5433 17.275ZM51 21.4999C50.9998 19.6226 51.0078 18.3965 50.5433 17.275L48.6955 18.0403C48.9743 18.7134 48.9998 19.4784 49 21.5001L51 21.4999ZM34.5 22.5H50V20.5H34.5V22.5ZM33.4027 22.4634C33.6756 22.5001 34.0311 22.5 34.5 22.5V20.5C33.9695 20.5 33.7767 20.4957 33.6692 20.4812L33.4027 22.4634ZM33.3927 22.462L33.4 22.463L33.6719 20.4816L33.6647 20.4806L33.3927 22.462ZM32.537 21.6L32.538 21.6073L34.5194 21.3353L34.5184 21.3281L32.537 21.6ZM32.5 20.5C32.5 20.9689 32.4999 21.3244 32.5366 21.5973L34.5188 21.3308C34.5043 21.2233 34.5 21.0305 34.5 20.5H32.5ZM36.2764 33.7078L27.5352 29.4122L26.6531 31.2071L35.3943 35.5028L36.2764 33.7078ZM36.2764 41.2922C37.8059 40.5406 38.5 38.9611 38.5 37.5C38.5 36.0389 37.8059 34.4594 36.2764 33.7078L35.3943 35.5028C36.0844 35.8419 36.5 36.6118 36.5 37.5C36.5 38.3882 36.0844 39.1581 35.3943 39.4972L36.2764 41.2922ZM27.5352 45.5878L36.2764 41.2922L35.3943 39.4972L26.6531 43.7929L27.5352 45.5878ZM21.5 41.2167C21.5 42.873 22.241 44.3094 23.3784 45.1694C24.5264 46.0374 26.0764 46.3047 27.5352 45.5878L26.6531 43.7929C25.9371 44.1448 25.19 44.0318 24.5846 43.5741C23.9686 43.1084 23.5 42.2736 23.5 41.2167H21.5ZM21.5 33.7833V41.2167H23.5V33.7833H21.5ZM27.5352 29.4122C26.0764 28.6953 24.5264 28.9626 23.3784 29.8306C22.241 30.6906 21.5 32.127 21.5 33.7833H23.5C23.5 32.7264 23.9686 31.8916 24.5846 31.4259C25.19 30.9682 25.9371 30.8552 26.6531 31.2071L27.5352 29.4122Z" fill="url(#paint1_linear_651_1531)"/>
<defs>
<linearGradient id="paint0_linear_651_1531" x1="30" y1="5" x2="30" y2="55" gradientUnits="userSpaceOnUse">
<stop stop-color="#184A8B"/>
<stop offset="1" stop-color="#63C7FF"/>
</linearGradient>
<linearGradient id="paint1_linear_651_1531" x1="30" y1="5" x2="30" y2="55" gradientUnits="userSpaceOnUse">
<stop stop-color="#184A8B"/>
<stop offset="1" stop-color="#63C7FF"/>
</linearGradient>
</defs>
</svg>
