<svg width="11" height="12" viewBox="0 0 11 12" fill="none" xmlns="http://www.w3.org/2000/svg">
<path d="M8.76914 12C8.61914 12 8.49414 11.925 8.39414 11.775L5.49414 7.55H5.46914L2.56914 11.775C2.48581 11.925 2.36081 12 2.19414 12H0.419141C0.319141 12 0.252474 11.975 0.219141 11.925C0.202474 11.875 0.210807 11.8167 0.244141 11.75L4.31914 5.75L0.594141 0.275C0.560807 0.208333 0.552474 0.15 0.569141 0.0999997C0.602474 0.0499994 0.669141 0.0249992 0.769141 0.0249992H2.56914C2.65247 0.0249992 2.71914 0.0416659 2.76914 0.0749993C2.83581 0.0916663 2.89414 0.15 2.94414 0.249999L5.46914 3.975H5.49414L8.06914 0.249999C8.15247 0.0999992 8.26914 0.0249992 8.41914 0.0249992H10.2191C10.3191 0.0249992 10.3775 0.0499994 10.3941 0.0999997C10.4275 0.15 10.4275 0.208333 10.3941 0.275L6.64414 5.75L10.7441 11.75C10.7775 11.8167 10.7775 11.875 10.7441 11.925C10.7275 11.975 10.6691 12 10.5691 12H8.76914Z" fill="black"/>
</svg>
